G04 #@! TF.FileFunction,Copper,L2,Bot,Signal*
%FSLAX46Y46*%
G04 Gerber Fmt 4.6, Leading zero omitted, Abs format (unit mm)*
G04 Created by KiCad (PCBNEW 4.0.7-e2-6376~58~ubuntu16.04.1) date Fri Feb  2 08:04:35 2018*
%MOMM*%
%LPD*%
G01*
G04 APERTURE LIST*
%ADD10C,0.100000*%
%ADD11C,2.200000*%
%ADD12R,1.800000X1.800000*%
%ADD13C,1.800000*%
%ADD14R,1.700000X1.700000*%
%ADD15O,1.700000X1.700000*%
%ADD16C,1.600000*%
%ADD17O,1.600000X1.600000*%
%ADD18C,1.524000*%
%ADD19C,1.700000*%
%ADD20C,2.340000*%
%ADD21C,2.500000*%
%ADD22C,0.254000*%
G04 APERTURE END LIST*
D10*
D11*
X184150000Y-78910000D03*
X184150000Y-93810000D03*
D12*
X179070000Y-118110000D03*
D13*
X179070000Y-120650000D03*
D12*
X189230000Y-118110000D03*
D13*
X189230000Y-120650000D03*
D14*
X185420000Y-152400000D03*
D15*
X185420000Y-149860000D03*
X185420000Y-147320000D03*
X185420000Y-144780000D03*
X185420000Y-142240000D03*
X185420000Y-139700000D03*
X185420000Y-137160000D03*
D16*
X179070000Y-101600000D03*
D17*
X179070000Y-111760000D03*
D16*
X189230000Y-101600000D03*
D17*
X189230000Y-111760000D03*
D18*
X160655000Y-95250000D03*
X158115000Y-95250000D03*
X155575000Y-95250000D03*
X153035000Y-95250000D03*
X150495000Y-95250000D03*
X147955000Y-95250000D03*
X145415000Y-95250000D03*
X142875000Y-95250000D03*
X140335000Y-95250000D03*
X137795000Y-95250000D03*
X135255000Y-95250000D03*
X132715000Y-95250000D03*
X130175000Y-95250000D03*
X127635000Y-95250000D03*
X125095000Y-95250000D03*
X125095000Y-123190000D03*
X127635000Y-123190000D03*
X130175000Y-123190000D03*
X132715000Y-123190000D03*
X135255000Y-123190000D03*
X137795000Y-123190000D03*
X140335000Y-123190000D03*
X142875000Y-123190000D03*
X145415000Y-123190000D03*
X147955000Y-123190000D03*
X150495000Y-123190000D03*
X153035000Y-123190000D03*
X155575000Y-123190000D03*
X158115000Y-123190000D03*
X160655000Y-123190000D03*
D19*
X165100000Y-87376000D03*
X165100000Y-77343000D03*
X167640000Y-77343000D03*
X120142000Y-87376000D03*
X122682000Y-87376000D03*
X167640000Y-87376000D03*
X122682000Y-77343000D03*
X120142000Y-77343000D03*
D20*
X186610000Y-60960000D03*
X184110000Y-70960000D03*
X181610000Y-60960000D03*
D21*
X114655600Y-61315600D03*
X114655600Y-154584400D03*
X195224400Y-154584400D03*
X195224400Y-61315600D03*
D22*
G36*
X197410000Y-156770000D02*
X112470000Y-156770000D01*
X112470000Y-154957705D01*
X112770274Y-154957705D01*
X113056643Y-155650772D01*
X113586439Y-156181493D01*
X114279005Y-156469072D01*
X115028905Y-156469726D01*
X115721972Y-156183357D01*
X116252693Y-155653561D01*
X116540272Y-154960995D01*
X116540274Y-154957705D01*
X193339074Y-154957705D01*
X193625443Y-155650772D01*
X194155239Y-156181493D01*
X194847805Y-156469072D01*
X195597705Y-156469726D01*
X196290772Y-156183357D01*
X196821493Y-155653561D01*
X197109072Y-154960995D01*
X197109726Y-154211095D01*
X196823357Y-153518028D01*
X196293561Y-152987307D01*
X195600995Y-152699728D01*
X194851095Y-152699074D01*
X194158028Y-152985443D01*
X193627307Y-153515239D01*
X193339728Y-154207805D01*
X193339074Y-154957705D01*
X116540274Y-154957705D01*
X116540926Y-154211095D01*
X116254557Y-153518028D01*
X115724761Y-152987307D01*
X115032195Y-152699728D01*
X114282295Y-152699074D01*
X113589228Y-152985443D01*
X113058507Y-153515239D01*
X112770928Y-154207805D01*
X112770274Y-154957705D01*
X112470000Y-154957705D01*
X112470000Y-144780000D01*
X183905907Y-144780000D01*
X184018946Y-145348285D01*
X184340853Y-145830054D01*
X184670026Y-146050000D01*
X184340853Y-146269946D01*
X184018946Y-146751715D01*
X183905907Y-147320000D01*
X184018946Y-147888285D01*
X184340853Y-148370054D01*
X184670026Y-148590000D01*
X184340853Y-148809946D01*
X184018946Y-149291715D01*
X183905907Y-149860000D01*
X184018946Y-150428285D01*
X184340853Y-150910054D01*
X184382452Y-150937850D01*
X184334683Y-150946838D01*
X184118559Y-151085910D01*
X183973569Y-151298110D01*
X183922560Y-151550000D01*
X183922560Y-153250000D01*
X183966838Y-153485317D01*
X184105910Y-153701441D01*
X184318110Y-153846431D01*
X184570000Y-153897440D01*
X186270000Y-153897440D01*
X186505317Y-153853162D01*
X186721441Y-153714090D01*
X186866431Y-153501890D01*
X186917440Y-153250000D01*
X186917440Y-151550000D01*
X186873162Y-151314683D01*
X186734090Y-151098559D01*
X186521890Y-150953569D01*
X186454459Y-150939914D01*
X186499147Y-150910054D01*
X186821054Y-150428285D01*
X186934093Y-149860000D01*
X186821054Y-149291715D01*
X186499147Y-148809946D01*
X186169974Y-148590000D01*
X186499147Y-148370054D01*
X186821054Y-147888285D01*
X186934093Y-147320000D01*
X186821054Y-146751715D01*
X186499147Y-146269946D01*
X186169974Y-146050000D01*
X186499147Y-145830054D01*
X186821054Y-145348285D01*
X186934093Y-144780000D01*
X186821054Y-144211715D01*
X186499147Y-143729946D01*
X186158447Y-143502298D01*
X186301358Y-143435183D01*
X186691645Y-143006924D01*
X186861476Y-142596890D01*
X186740155Y-142367000D01*
X185547000Y-142367000D01*
X185547000Y-142387000D01*
X185293000Y-142387000D01*
X185293000Y-142367000D01*
X184099845Y-142367000D01*
X183978524Y-142596890D01*
X184148355Y-143006924D01*
X184538642Y-143435183D01*
X184681553Y-143502298D01*
X184340853Y-143729946D01*
X184018946Y-144211715D01*
X183905907Y-144780000D01*
X112470000Y-144780000D01*
X112470000Y-137160000D01*
X183905907Y-137160000D01*
X184018946Y-137728285D01*
X184340853Y-138210054D01*
X184670026Y-138430000D01*
X184340853Y-138649946D01*
X184018946Y-139131715D01*
X183905907Y-139700000D01*
X184018946Y-140268285D01*
X184340853Y-140750054D01*
X184681553Y-140977702D01*
X184538642Y-141044817D01*
X184148355Y-141473076D01*
X183978524Y-141883110D01*
X184099845Y-142113000D01*
X185293000Y-142113000D01*
X185293000Y-142093000D01*
X185547000Y-142093000D01*
X185547000Y-142113000D01*
X186740155Y-142113000D01*
X186861476Y-141883110D01*
X186691645Y-141473076D01*
X186301358Y-141044817D01*
X186158447Y-140977702D01*
X186499147Y-140750054D01*
X186821054Y-140268285D01*
X186934093Y-139700000D01*
X186821054Y-139131715D01*
X186499147Y-138649946D01*
X186169974Y-138430000D01*
X186499147Y-138210054D01*
X186821054Y-137728285D01*
X186934093Y-137160000D01*
X186821054Y-136591715D01*
X186499147Y-136109946D01*
X186017378Y-135788039D01*
X185449093Y-135675000D01*
X185390907Y-135675000D01*
X184822622Y-135788039D01*
X184340853Y-136109946D01*
X184018946Y-136591715D01*
X183905907Y-137160000D01*
X112470000Y-137160000D01*
X112470000Y-123466661D01*
X123697758Y-123466661D01*
X123909990Y-123980303D01*
X124302630Y-124373629D01*
X124815900Y-124586757D01*
X125371661Y-124587242D01*
X125885303Y-124375010D01*
X126090457Y-124170213D01*
X126834392Y-124170213D01*
X126903857Y-124412397D01*
X127427302Y-124599144D01*
X127982368Y-124571362D01*
X128366143Y-124412397D01*
X128435608Y-124170213D01*
X127635000Y-123369605D01*
X126834392Y-124170213D01*
X126090457Y-124170213D01*
X126278629Y-123982370D01*
X126358395Y-123790273D01*
X126412603Y-123921143D01*
X126654787Y-123990608D01*
X127455395Y-123190000D01*
X127814605Y-123190000D01*
X128615213Y-123990608D01*
X128857397Y-123921143D01*
X128907509Y-123780682D01*
X128989990Y-123980303D01*
X129382630Y-124373629D01*
X129895900Y-124586757D01*
X130451661Y-124587242D01*
X130965303Y-124375010D01*
X131358629Y-123982370D01*
X131444949Y-123774488D01*
X131529990Y-123980303D01*
X131922630Y-124373629D01*
X132435900Y-124586757D01*
X132991661Y-124587242D01*
X133505303Y-124375010D01*
X133898629Y-123982370D01*
X133984949Y-123774488D01*
X134069990Y-123980303D01*
X134462630Y-124373629D01*
X134975900Y-124586757D01*
X135531661Y-124587242D01*
X136045303Y-124375010D01*
X136438629Y-123982370D01*
X136524949Y-123774488D01*
X136609990Y-123980303D01*
X137002630Y-124373629D01*
X137515900Y-124586757D01*
X138071661Y-124587242D01*
X138585303Y-124375010D01*
X138978629Y-123982370D01*
X139064949Y-123774488D01*
X139149990Y-123980303D01*
X139542630Y-124373629D01*
X140055900Y-124586757D01*
X140611661Y-124587242D01*
X141125303Y-124375010D01*
X141518629Y-123982370D01*
X141604949Y-123774488D01*
X141689990Y-123980303D01*
X142082630Y-124373629D01*
X142595900Y-124586757D01*
X143151661Y-124587242D01*
X143665303Y-124375010D01*
X143870457Y-124170213D01*
X144614392Y-124170213D01*
X144683857Y-124412397D01*
X145207302Y-124599144D01*
X145762368Y-124571362D01*
X146146143Y-124412397D01*
X146215608Y-124170213D01*
X145415000Y-123369605D01*
X144614392Y-124170213D01*
X143870457Y-124170213D01*
X144058629Y-123982370D01*
X144138395Y-123790273D01*
X144192603Y-123921143D01*
X144434787Y-123990608D01*
X145235395Y-123190000D01*
X145594605Y-123190000D01*
X146395213Y-123990608D01*
X146637397Y-123921143D01*
X146687509Y-123780682D01*
X146769990Y-123980303D01*
X147162630Y-124373629D01*
X147675900Y-124586757D01*
X148231661Y-124587242D01*
X148745303Y-124375010D01*
X149138629Y-123982370D01*
X149224949Y-123774488D01*
X149309990Y-123980303D01*
X149702630Y-124373629D01*
X150215900Y-124586757D01*
X150771661Y-124587242D01*
X151285303Y-124375010D01*
X151678629Y-123982370D01*
X151764949Y-123774488D01*
X151849990Y-123980303D01*
X152242630Y-124373629D01*
X152755900Y-124586757D01*
X153311661Y-124587242D01*
X153825303Y-124375010D01*
X154218629Y-123982370D01*
X154304949Y-123774488D01*
X154389990Y-123980303D01*
X154782630Y-124373629D01*
X155295900Y-124586757D01*
X155851661Y-124587242D01*
X156365303Y-124375010D01*
X156758629Y-123982370D01*
X156844949Y-123774488D01*
X156929990Y-123980303D01*
X157322630Y-124373629D01*
X157835900Y-124586757D01*
X158391661Y-124587242D01*
X158905303Y-124375010D01*
X159298629Y-123982370D01*
X159384949Y-123774488D01*
X159469990Y-123980303D01*
X159862630Y-124373629D01*
X160375900Y-124586757D01*
X160931661Y-124587242D01*
X161445303Y-124375010D01*
X161838629Y-123982370D01*
X162051757Y-123469100D01*
X162052242Y-122913339D01*
X161840010Y-122399697D01*
X161447370Y-122006371D01*
X160934100Y-121793243D01*
X160378339Y-121792758D01*
X159864697Y-122004990D01*
X159471371Y-122397630D01*
X159385051Y-122605512D01*
X159300010Y-122399697D01*
X158907370Y-122006371D01*
X158394100Y-121793243D01*
X157838339Y-121792758D01*
X157324697Y-122004990D01*
X156931371Y-122397630D01*
X156845051Y-122605512D01*
X156760010Y-122399697D01*
X156367370Y-122006371D01*
X155854100Y-121793243D01*
X155298339Y-121792758D01*
X154784697Y-122004990D01*
X154391371Y-122397630D01*
X154305051Y-122605512D01*
X154220010Y-122399697D01*
X153827370Y-122006371D01*
X153314100Y-121793243D01*
X152758339Y-121792758D01*
X152244697Y-122004990D01*
X151851371Y-122397630D01*
X151765051Y-122605512D01*
X151680010Y-122399697D01*
X151287370Y-122006371D01*
X150774100Y-121793243D01*
X150218339Y-121792758D01*
X149704697Y-122004990D01*
X149311371Y-122397630D01*
X149225051Y-122605512D01*
X149140010Y-122399697D01*
X148747370Y-122006371D01*
X148234100Y-121793243D01*
X147678339Y-121792758D01*
X147164697Y-122004990D01*
X146771371Y-122397630D01*
X146691605Y-122589727D01*
X146637397Y-122458857D01*
X146395213Y-122389392D01*
X145594605Y-123190000D01*
X145235395Y-123190000D01*
X144434787Y-122389392D01*
X144192603Y-122458857D01*
X144142491Y-122599318D01*
X144060010Y-122399697D01*
X143870432Y-122209787D01*
X144614392Y-122209787D01*
X145415000Y-123010395D01*
X146215608Y-122209787D01*
X146146143Y-121967603D01*
X145622698Y-121780856D01*
X145067632Y-121808638D01*
X144683857Y-121967603D01*
X144614392Y-122209787D01*
X143870432Y-122209787D01*
X143667370Y-122006371D01*
X143154100Y-121793243D01*
X142598339Y-121792758D01*
X142084697Y-122004990D01*
X141691371Y-122397630D01*
X141605051Y-122605512D01*
X141520010Y-122399697D01*
X141127370Y-122006371D01*
X140614100Y-121793243D01*
X140058339Y-121792758D01*
X139544697Y-122004990D01*
X139151371Y-122397630D01*
X139065051Y-122605512D01*
X138980010Y-122399697D01*
X138587370Y-122006371D01*
X138074100Y-121793243D01*
X137518339Y-121792758D01*
X137004697Y-122004990D01*
X136611371Y-122397630D01*
X136525051Y-122605512D01*
X136440010Y-122399697D01*
X136047370Y-122006371D01*
X135534100Y-121793243D01*
X134978339Y-121792758D01*
X134464697Y-122004990D01*
X134071371Y-122397630D01*
X133985051Y-122605512D01*
X133900010Y-122399697D01*
X133507370Y-122006371D01*
X132994100Y-121793243D01*
X132438339Y-121792758D01*
X131924697Y-122004990D01*
X131531371Y-122397630D01*
X131445051Y-122605512D01*
X131360010Y-122399697D01*
X130967370Y-122006371D01*
X130454100Y-121793243D01*
X129898339Y-121792758D01*
X129384697Y-122004990D01*
X128991371Y-122397630D01*
X128911605Y-122589727D01*
X128857397Y-122458857D01*
X128615213Y-122389392D01*
X127814605Y-123190000D01*
X127455395Y-123190000D01*
X126654787Y-122389392D01*
X126412603Y-122458857D01*
X126362491Y-122599318D01*
X126280010Y-122399697D01*
X126090432Y-122209787D01*
X126834392Y-122209787D01*
X127635000Y-123010395D01*
X128435608Y-122209787D01*
X128366143Y-121967603D01*
X127842698Y-121780856D01*
X127287632Y-121808638D01*
X126903857Y-121967603D01*
X126834392Y-122209787D01*
X126090432Y-122209787D01*
X125887370Y-122006371D01*
X125374100Y-121793243D01*
X124818339Y-121792758D01*
X124304697Y-122004990D01*
X123911371Y-122397630D01*
X123698243Y-122910900D01*
X123697758Y-123466661D01*
X112470000Y-123466661D01*
X112470000Y-117210000D01*
X177522560Y-117210000D01*
X177522560Y-119010000D01*
X177566838Y-119245317D01*
X177705910Y-119461441D01*
X177918110Y-119606431D01*
X177938534Y-119610567D01*
X177769449Y-119779357D01*
X177535267Y-120343330D01*
X177534735Y-120953991D01*
X177767932Y-121518371D01*
X178199357Y-121950551D01*
X178763330Y-122184733D01*
X179373991Y-122185265D01*
X179938371Y-121952068D01*
X180370551Y-121520643D01*
X180604733Y-120956670D01*
X180605265Y-120346009D01*
X180372068Y-119781629D01*
X180204120Y-119613387D01*
X180205317Y-119613162D01*
X180421441Y-119474090D01*
X180566431Y-119261890D01*
X180617440Y-119010000D01*
X180617440Y-117210000D01*
X187682560Y-117210000D01*
X187682560Y-119010000D01*
X187726838Y-119245317D01*
X187865910Y-119461441D01*
X188078110Y-119606431D01*
X188098534Y-119610567D01*
X187929449Y-119779357D01*
X187695267Y-120343330D01*
X187694735Y-120953991D01*
X187927932Y-121518371D01*
X188359357Y-121950551D01*
X188923330Y-122184733D01*
X189533991Y-122185265D01*
X190098371Y-121952068D01*
X190530551Y-121520643D01*
X190764733Y-120956670D01*
X190765265Y-120346009D01*
X190532068Y-119781629D01*
X190364120Y-119613387D01*
X190365317Y-119613162D01*
X190581441Y-119474090D01*
X190726431Y-119261890D01*
X190777440Y-119010000D01*
X190777440Y-117210000D01*
X190733162Y-116974683D01*
X190594090Y-116758559D01*
X190381890Y-116613569D01*
X190130000Y-116562560D01*
X188330000Y-116562560D01*
X188094683Y-116606838D01*
X187878559Y-116745910D01*
X187733569Y-116958110D01*
X187682560Y-117210000D01*
X180617440Y-117210000D01*
X180573162Y-116974683D01*
X180434090Y-116758559D01*
X180221890Y-116613569D01*
X179970000Y-116562560D01*
X178170000Y-116562560D01*
X177934683Y-116606838D01*
X177718559Y-116745910D01*
X177573569Y-116958110D01*
X177522560Y-117210000D01*
X112470000Y-117210000D01*
X112470000Y-111731887D01*
X177635000Y-111731887D01*
X177635000Y-111788113D01*
X177744233Y-112337264D01*
X178055302Y-112802811D01*
X178520849Y-113113880D01*
X179070000Y-113223113D01*
X179619151Y-113113880D01*
X180084698Y-112802811D01*
X180395767Y-112337264D01*
X180505000Y-111788113D01*
X180505000Y-111731887D01*
X187795000Y-111731887D01*
X187795000Y-111788113D01*
X187904233Y-112337264D01*
X188215302Y-112802811D01*
X188680849Y-113113880D01*
X189230000Y-113223113D01*
X189779151Y-113113880D01*
X190244698Y-112802811D01*
X190555767Y-112337264D01*
X190665000Y-111788113D01*
X190665000Y-111731887D01*
X190555767Y-111182736D01*
X190244698Y-110717189D01*
X189779151Y-110406120D01*
X189230000Y-110296887D01*
X188680849Y-110406120D01*
X188215302Y-110717189D01*
X187904233Y-111182736D01*
X187795000Y-111731887D01*
X180505000Y-111731887D01*
X180395767Y-111182736D01*
X180084698Y-110717189D01*
X179619151Y-110406120D01*
X179070000Y-110296887D01*
X178520849Y-110406120D01*
X178055302Y-110717189D01*
X177744233Y-111182736D01*
X177635000Y-111731887D01*
X112470000Y-111731887D01*
X112470000Y-102607745D01*
X178241861Y-102607745D01*
X178315995Y-102853864D01*
X178853223Y-103046965D01*
X179423454Y-103019778D01*
X179824005Y-102853864D01*
X179898139Y-102607745D01*
X188401861Y-102607745D01*
X188475995Y-102853864D01*
X189013223Y-103046965D01*
X189583454Y-103019778D01*
X189984005Y-102853864D01*
X190058139Y-102607745D01*
X189230000Y-101779605D01*
X188401861Y-102607745D01*
X179898139Y-102607745D01*
X179070000Y-101779605D01*
X178241861Y-102607745D01*
X112470000Y-102607745D01*
X112470000Y-101383223D01*
X177623035Y-101383223D01*
X177650222Y-101953454D01*
X177816136Y-102354005D01*
X178062255Y-102428139D01*
X178890395Y-101600000D01*
X179249605Y-101600000D01*
X180077745Y-102428139D01*
X180323864Y-102354005D01*
X180516965Y-101816777D01*
X180496295Y-101383223D01*
X187783035Y-101383223D01*
X187810222Y-101953454D01*
X187976136Y-102354005D01*
X188222255Y-102428139D01*
X189050395Y-101600000D01*
X189409605Y-101600000D01*
X190237745Y-102428139D01*
X190483864Y-102354005D01*
X190676965Y-101816777D01*
X190649778Y-101246546D01*
X190483864Y-100845995D01*
X190237745Y-100771861D01*
X189409605Y-101600000D01*
X189050395Y-101600000D01*
X188222255Y-100771861D01*
X187976136Y-100845995D01*
X187783035Y-101383223D01*
X180496295Y-101383223D01*
X180489778Y-101246546D01*
X180323864Y-100845995D01*
X180077745Y-100771861D01*
X179249605Y-101600000D01*
X178890395Y-101600000D01*
X178062255Y-100771861D01*
X177816136Y-100845995D01*
X177623035Y-101383223D01*
X112470000Y-101383223D01*
X112470000Y-100592255D01*
X178241861Y-100592255D01*
X179070000Y-101420395D01*
X179898139Y-100592255D01*
X188401861Y-100592255D01*
X189230000Y-101420395D01*
X190058139Y-100592255D01*
X189984005Y-100346136D01*
X189446777Y-100153035D01*
X188876546Y-100180222D01*
X188475995Y-100346136D01*
X188401861Y-100592255D01*
X179898139Y-100592255D01*
X179824005Y-100346136D01*
X179286777Y-100153035D01*
X178716546Y-100180222D01*
X178315995Y-100346136D01*
X178241861Y-100592255D01*
X112470000Y-100592255D01*
X112470000Y-95526661D01*
X123697758Y-95526661D01*
X123909990Y-96040303D01*
X124302630Y-96433629D01*
X124815900Y-96646757D01*
X125371661Y-96647242D01*
X125885303Y-96435010D01*
X126090457Y-96230213D01*
X126834392Y-96230213D01*
X126903857Y-96472397D01*
X127427302Y-96659144D01*
X127982368Y-96631362D01*
X128366143Y-96472397D01*
X128435608Y-96230213D01*
X127635000Y-95429605D01*
X126834392Y-96230213D01*
X126090457Y-96230213D01*
X126278629Y-96042370D01*
X126358395Y-95850273D01*
X126412603Y-95981143D01*
X126654787Y-96050608D01*
X127455395Y-95250000D01*
X127814605Y-95250000D01*
X128615213Y-96050608D01*
X128857397Y-95981143D01*
X128907509Y-95840682D01*
X128989990Y-96040303D01*
X129382630Y-96433629D01*
X129895900Y-96646757D01*
X130451661Y-96647242D01*
X130965303Y-96435010D01*
X131358629Y-96042370D01*
X131444949Y-95834488D01*
X131529990Y-96040303D01*
X131922630Y-96433629D01*
X132435900Y-96646757D01*
X132991661Y-96647242D01*
X133505303Y-96435010D01*
X133898629Y-96042370D01*
X133984949Y-95834488D01*
X134069990Y-96040303D01*
X134462630Y-96433629D01*
X134975900Y-96646757D01*
X135531661Y-96647242D01*
X136045303Y-96435010D01*
X136250457Y-96230213D01*
X136994392Y-96230213D01*
X137063857Y-96472397D01*
X137587302Y-96659144D01*
X138142368Y-96631362D01*
X138526143Y-96472397D01*
X138595608Y-96230213D01*
X137795000Y-95429605D01*
X136994392Y-96230213D01*
X136250457Y-96230213D01*
X136438629Y-96042370D01*
X136518395Y-95850273D01*
X136572603Y-95981143D01*
X136814787Y-96050608D01*
X137615395Y-95250000D01*
X137974605Y-95250000D01*
X138775213Y-96050608D01*
X139017397Y-95981143D01*
X139067509Y-95840682D01*
X139149990Y-96040303D01*
X139542630Y-96433629D01*
X140055900Y-96646757D01*
X140611661Y-96647242D01*
X141125303Y-96435010D01*
X141518629Y-96042370D01*
X141604949Y-95834488D01*
X141689990Y-96040303D01*
X142082630Y-96433629D01*
X142595900Y-96646757D01*
X143151661Y-96647242D01*
X143665303Y-96435010D01*
X144058629Y-96042370D01*
X144144949Y-95834488D01*
X144229990Y-96040303D01*
X144622630Y-96433629D01*
X145135900Y-96646757D01*
X145691661Y-96647242D01*
X146205303Y-96435010D01*
X146598629Y-96042370D01*
X146684949Y-95834488D01*
X146769990Y-96040303D01*
X147162630Y-96433629D01*
X147675900Y-96646757D01*
X148231661Y-96647242D01*
X148745303Y-96435010D01*
X149138629Y-96042370D01*
X149224949Y-95834488D01*
X149309990Y-96040303D01*
X149702630Y-96433629D01*
X150215900Y-96646757D01*
X150771661Y-96647242D01*
X151285303Y-96435010D01*
X151678629Y-96042370D01*
X151764949Y-95834488D01*
X151849990Y-96040303D01*
X152242630Y-96433629D01*
X152755900Y-96646757D01*
X153311661Y-96647242D01*
X153825303Y-96435010D01*
X154218629Y-96042370D01*
X154304949Y-95834488D01*
X154389990Y-96040303D01*
X154782630Y-96433629D01*
X155295900Y-96646757D01*
X155851661Y-96647242D01*
X156365303Y-96435010D01*
X156570457Y-96230213D01*
X157314392Y-96230213D01*
X157383857Y-96472397D01*
X157907302Y-96659144D01*
X158462368Y-96631362D01*
X158846143Y-96472397D01*
X158915608Y-96230213D01*
X158115000Y-95429605D01*
X157314392Y-96230213D01*
X156570457Y-96230213D01*
X156758629Y-96042370D01*
X156838395Y-95850273D01*
X156892603Y-95981143D01*
X157134787Y-96050608D01*
X157935395Y-95250000D01*
X158294605Y-95250000D01*
X159095213Y-96050608D01*
X159337397Y-95981143D01*
X159387509Y-95840682D01*
X159469990Y-96040303D01*
X159862630Y-96433629D01*
X160375900Y-96646757D01*
X160931661Y-96647242D01*
X161445303Y-96435010D01*
X161838629Y-96042370D01*
X162051757Y-95529100D01*
X162052188Y-95034868D01*
X183104737Y-95034868D01*
X183215641Y-95312099D01*
X183861593Y-95555323D01*
X184551453Y-95532836D01*
X185084359Y-95312099D01*
X185195263Y-95034868D01*
X184150000Y-93989605D01*
X183104737Y-95034868D01*
X162052188Y-95034868D01*
X162052242Y-94973339D01*
X161840010Y-94459697D01*
X161447370Y-94066371D01*
X160934100Y-93853243D01*
X160378339Y-93852758D01*
X159864697Y-94064990D01*
X159471371Y-94457630D01*
X159391605Y-94649727D01*
X159337397Y-94518857D01*
X159095213Y-94449392D01*
X158294605Y-95250000D01*
X157935395Y-95250000D01*
X157134787Y-94449392D01*
X156892603Y-94518857D01*
X156842491Y-94659318D01*
X156760010Y-94459697D01*
X156570432Y-94269787D01*
X157314392Y-94269787D01*
X158115000Y-95070395D01*
X158915608Y-94269787D01*
X158846143Y-94027603D01*
X158322698Y-93840856D01*
X157767632Y-93868638D01*
X157383857Y-94027603D01*
X157314392Y-94269787D01*
X156570432Y-94269787D01*
X156367370Y-94066371D01*
X155854100Y-93853243D01*
X155298339Y-93852758D01*
X154784697Y-94064990D01*
X154391371Y-94457630D01*
X154305051Y-94665512D01*
X154220010Y-94459697D01*
X153827370Y-94066371D01*
X153314100Y-93853243D01*
X152758339Y-93852758D01*
X152244697Y-94064990D01*
X151851371Y-94457630D01*
X151765051Y-94665512D01*
X151680010Y-94459697D01*
X151287370Y-94066371D01*
X150774100Y-93853243D01*
X150218339Y-93852758D01*
X149704697Y-94064990D01*
X149311371Y-94457630D01*
X149225051Y-94665512D01*
X149140010Y-94459697D01*
X148747370Y-94066371D01*
X148234100Y-93853243D01*
X147678339Y-93852758D01*
X147164697Y-94064990D01*
X146771371Y-94457630D01*
X146685051Y-94665512D01*
X146600010Y-94459697D01*
X146207370Y-94066371D01*
X145694100Y-93853243D01*
X145138339Y-93852758D01*
X144624697Y-94064990D01*
X144231371Y-94457630D01*
X144145051Y-94665512D01*
X144060010Y-94459697D01*
X143667370Y-94066371D01*
X143154100Y-93853243D01*
X142598339Y-93852758D01*
X142084697Y-94064990D01*
X141691371Y-94457630D01*
X141605051Y-94665512D01*
X141520010Y-94459697D01*
X141127370Y-94066371D01*
X140614100Y-93853243D01*
X140058339Y-93852758D01*
X139544697Y-94064990D01*
X139151371Y-94457630D01*
X139071605Y-94649727D01*
X139017397Y-94518857D01*
X138775213Y-94449392D01*
X137974605Y-95250000D01*
X137615395Y-95250000D01*
X136814787Y-94449392D01*
X136572603Y-94518857D01*
X136522491Y-94659318D01*
X136440010Y-94459697D01*
X136250432Y-94269787D01*
X136994392Y-94269787D01*
X137795000Y-95070395D01*
X138595608Y-94269787D01*
X138526143Y-94027603D01*
X138002698Y-93840856D01*
X137447632Y-93868638D01*
X137063857Y-94027603D01*
X136994392Y-94269787D01*
X136250432Y-94269787D01*
X136047370Y-94066371D01*
X135534100Y-93853243D01*
X134978339Y-93852758D01*
X134464697Y-94064990D01*
X134071371Y-94457630D01*
X133985051Y-94665512D01*
X133900010Y-94459697D01*
X133507370Y-94066371D01*
X132994100Y-93853243D01*
X132438339Y-93852758D01*
X131924697Y-94064990D01*
X131531371Y-94457630D01*
X131445051Y-94665512D01*
X131360010Y-94459697D01*
X130967370Y-94066371D01*
X130454100Y-93853243D01*
X129898339Y-93852758D01*
X129384697Y-94064990D01*
X128991371Y-94457630D01*
X128911605Y-94649727D01*
X128857397Y-94518857D01*
X128615213Y-94449392D01*
X127814605Y-95250000D01*
X127455395Y-95250000D01*
X126654787Y-94449392D01*
X126412603Y-94518857D01*
X126362491Y-94659318D01*
X126280010Y-94459697D01*
X126090432Y-94269787D01*
X126834392Y-94269787D01*
X127635000Y-95070395D01*
X128435608Y-94269787D01*
X128366143Y-94027603D01*
X127842698Y-93840856D01*
X127287632Y-93868638D01*
X126903857Y-94027603D01*
X126834392Y-94269787D01*
X126090432Y-94269787D01*
X125887370Y-94066371D01*
X125374100Y-93853243D01*
X124818339Y-93852758D01*
X124304697Y-94064990D01*
X123911371Y-94457630D01*
X123698243Y-94970900D01*
X123697758Y-95526661D01*
X112470000Y-95526661D01*
X112470000Y-93521593D01*
X182404677Y-93521593D01*
X182427164Y-94211453D01*
X182647901Y-94744359D01*
X182925132Y-94855263D01*
X183970395Y-93810000D01*
X184329605Y-93810000D01*
X185374868Y-94855263D01*
X185652099Y-94744359D01*
X185895323Y-94098407D01*
X185872836Y-93408547D01*
X185652099Y-92875641D01*
X185374868Y-92764737D01*
X184329605Y-93810000D01*
X183970395Y-93810000D01*
X182925132Y-92764737D01*
X182647901Y-92875641D01*
X182404677Y-93521593D01*
X112470000Y-93521593D01*
X112470000Y-92585132D01*
X183104737Y-92585132D01*
X184150000Y-93630395D01*
X185195263Y-92585132D01*
X185084359Y-92307901D01*
X184438407Y-92064677D01*
X183748547Y-92087164D01*
X183215641Y-92307901D01*
X183104737Y-92585132D01*
X112470000Y-92585132D01*
X112470000Y-87670089D01*
X118656743Y-87670089D01*
X118882344Y-88216086D01*
X119299717Y-88634188D01*
X119845319Y-88860742D01*
X120436089Y-88861257D01*
X120982086Y-88635656D01*
X121198160Y-88419958D01*
X121817647Y-88419958D01*
X121897920Y-88671259D01*
X122453279Y-88872718D01*
X123043458Y-88846315D01*
X123466080Y-88671259D01*
X123546353Y-88419958D01*
X122682000Y-87555605D01*
X121817647Y-88419958D01*
X121198160Y-88419958D01*
X121400188Y-88218283D01*
X121419951Y-88170688D01*
X121638042Y-88240353D01*
X122502395Y-87376000D01*
X122861605Y-87376000D01*
X123725958Y-88240353D01*
X123977259Y-88160080D01*
X124155005Y-87670089D01*
X163614743Y-87670089D01*
X163840344Y-88216086D01*
X164257717Y-88634188D01*
X164803319Y-88860742D01*
X165394089Y-88861257D01*
X165940086Y-88635656D01*
X166156160Y-88419958D01*
X166775647Y-88419958D01*
X166855920Y-88671259D01*
X167411279Y-88872718D01*
X168001458Y-88846315D01*
X168424080Y-88671259D01*
X168504353Y-88419958D01*
X167640000Y-87555605D01*
X166775647Y-88419958D01*
X166156160Y-88419958D01*
X166358188Y-88218283D01*
X166377951Y-88170688D01*
X166596042Y-88240353D01*
X167460395Y-87376000D01*
X167819605Y-87376000D01*
X168683958Y-88240353D01*
X168935259Y-88160080D01*
X169136718Y-87604721D01*
X169110315Y-87014542D01*
X168935259Y-86591920D01*
X168683958Y-86511647D01*
X167819605Y-87376000D01*
X167460395Y-87376000D01*
X166596042Y-86511647D01*
X166378360Y-86581181D01*
X166359656Y-86535914D01*
X166156140Y-86332042D01*
X166775647Y-86332042D01*
X167640000Y-87196395D01*
X168504353Y-86332042D01*
X168424080Y-86080741D01*
X167868721Y-85879282D01*
X167278542Y-85905685D01*
X166855920Y-86080741D01*
X166775647Y-86332042D01*
X166156140Y-86332042D01*
X165942283Y-86117812D01*
X165396681Y-85891258D01*
X164805911Y-85890743D01*
X164259914Y-86116344D01*
X163841812Y-86533717D01*
X163615258Y-87079319D01*
X163614743Y-87670089D01*
X124155005Y-87670089D01*
X124178718Y-87604721D01*
X124152315Y-87014542D01*
X123977259Y-86591920D01*
X123725958Y-86511647D01*
X122861605Y-87376000D01*
X122502395Y-87376000D01*
X121638042Y-86511647D01*
X121420360Y-86581181D01*
X121401656Y-86535914D01*
X121198140Y-86332042D01*
X121817647Y-86332042D01*
X122682000Y-87196395D01*
X123546353Y-86332042D01*
X123466080Y-86080741D01*
X122910721Y-85879282D01*
X122320542Y-85905685D01*
X121897920Y-86080741D01*
X121817647Y-86332042D01*
X121198140Y-86332042D01*
X120984283Y-86117812D01*
X120438681Y-85891258D01*
X119847911Y-85890743D01*
X119301914Y-86116344D01*
X118883812Y-86533717D01*
X118657258Y-87079319D01*
X118656743Y-87670089D01*
X112470000Y-87670089D01*
X112470000Y-79253599D01*
X182414699Y-79253599D01*
X182678281Y-79891515D01*
X183165918Y-80380004D01*
X183803373Y-80644699D01*
X184493599Y-80645301D01*
X185131515Y-80381719D01*
X185620004Y-79894082D01*
X185884699Y-79256627D01*
X185885301Y-78566401D01*
X185621719Y-77928485D01*
X185134082Y-77439996D01*
X184496627Y-77175301D01*
X183806401Y-77174699D01*
X183168485Y-77438281D01*
X182679996Y-77925918D01*
X182415301Y-78563373D01*
X182414699Y-79253599D01*
X112470000Y-79253599D01*
X112470000Y-77637089D01*
X118656743Y-77637089D01*
X118882344Y-78183086D01*
X119299717Y-78601188D01*
X119845319Y-78827742D01*
X120436089Y-78828257D01*
X120982086Y-78602656D01*
X121198160Y-78386958D01*
X121817647Y-78386958D01*
X121897920Y-78638259D01*
X122453279Y-78839718D01*
X123043458Y-78813315D01*
X123466080Y-78638259D01*
X123546353Y-78386958D01*
X122682000Y-77522605D01*
X121817647Y-78386958D01*
X121198160Y-78386958D01*
X121400188Y-78185283D01*
X121419951Y-78137688D01*
X121638042Y-78207353D01*
X122502395Y-77343000D01*
X122861605Y-77343000D01*
X123725958Y-78207353D01*
X123977259Y-78127080D01*
X124155005Y-77637089D01*
X163614743Y-77637089D01*
X163840344Y-78183086D01*
X164257717Y-78601188D01*
X164803319Y-78827742D01*
X165394089Y-78828257D01*
X165940086Y-78602656D01*
X166156160Y-78386958D01*
X166775647Y-78386958D01*
X166855920Y-78638259D01*
X167411279Y-78839718D01*
X168001458Y-78813315D01*
X168424080Y-78638259D01*
X168504353Y-78386958D01*
X167640000Y-77522605D01*
X166775647Y-78386958D01*
X166156160Y-78386958D01*
X166358188Y-78185283D01*
X166377951Y-78137688D01*
X166596042Y-78207353D01*
X167460395Y-77343000D01*
X167819605Y-77343000D01*
X168683958Y-78207353D01*
X168935259Y-78127080D01*
X169136718Y-77571721D01*
X169110315Y-76981542D01*
X168935259Y-76558920D01*
X168683958Y-76478647D01*
X167819605Y-77343000D01*
X167460395Y-77343000D01*
X166596042Y-76478647D01*
X166378360Y-76548181D01*
X166359656Y-76502914D01*
X166156140Y-76299042D01*
X166775647Y-76299042D01*
X167640000Y-77163395D01*
X168504353Y-76299042D01*
X168424080Y-76047741D01*
X167868721Y-75846282D01*
X167278542Y-75872685D01*
X166855920Y-76047741D01*
X166775647Y-76299042D01*
X166156140Y-76299042D01*
X165942283Y-76084812D01*
X165396681Y-75858258D01*
X164805911Y-75857743D01*
X164259914Y-76083344D01*
X163841812Y-76500717D01*
X163615258Y-77046319D01*
X163614743Y-77637089D01*
X124155005Y-77637089D01*
X124178718Y-77571721D01*
X124152315Y-76981542D01*
X123977259Y-76558920D01*
X123725958Y-76478647D01*
X122861605Y-77343000D01*
X122502395Y-77343000D01*
X121638042Y-76478647D01*
X121420360Y-76548181D01*
X121401656Y-76502914D01*
X121198140Y-76299042D01*
X121817647Y-76299042D01*
X122682000Y-77163395D01*
X123546353Y-76299042D01*
X123466080Y-76047741D01*
X122910721Y-75846282D01*
X122320542Y-75872685D01*
X121897920Y-76047741D01*
X121817647Y-76299042D01*
X121198140Y-76299042D01*
X120984283Y-76084812D01*
X120438681Y-75858258D01*
X119847911Y-75857743D01*
X119301914Y-76083344D01*
X118883812Y-76500717D01*
X118657258Y-77046319D01*
X118656743Y-77637089D01*
X112470000Y-77637089D01*
X112470000Y-71317462D01*
X182304687Y-71317462D01*
X182578903Y-71981115D01*
X183086215Y-72489312D01*
X183749388Y-72764686D01*
X184467462Y-72765313D01*
X185131115Y-72491097D01*
X185639312Y-71983785D01*
X185914686Y-71320612D01*
X185915313Y-70602538D01*
X185641097Y-69938885D01*
X185133785Y-69430688D01*
X184470612Y-69155314D01*
X183752538Y-69154687D01*
X183088885Y-69428903D01*
X182580688Y-69936215D01*
X182305314Y-70599388D01*
X182304687Y-71317462D01*
X112470000Y-71317462D01*
X112470000Y-61688905D01*
X112770274Y-61688905D01*
X113056643Y-62381972D01*
X113586439Y-62912693D01*
X114279005Y-63200272D01*
X115028905Y-63200926D01*
X115721972Y-62914557D01*
X116252693Y-62384761D01*
X116540272Y-61692195D01*
X116540598Y-61317462D01*
X179804687Y-61317462D01*
X180078903Y-61981115D01*
X180586215Y-62489312D01*
X181249388Y-62764686D01*
X181967462Y-62765313D01*
X182631115Y-62491097D01*
X182887171Y-62235486D01*
X185514120Y-62235486D01*
X185633586Y-62519984D01*
X186304890Y-62774894D01*
X187022646Y-62753504D01*
X187586414Y-62519984D01*
X187705880Y-62235486D01*
X186610000Y-61139605D01*
X185514120Y-62235486D01*
X182887171Y-62235486D01*
X183139312Y-61983785D01*
X183414686Y-61320612D01*
X183415267Y-60654890D01*
X184795106Y-60654890D01*
X184816496Y-61372646D01*
X185050016Y-61936414D01*
X185334514Y-62055880D01*
X186430395Y-60960000D01*
X186789605Y-60960000D01*
X187885486Y-62055880D01*
X188169984Y-61936414D01*
X188263969Y-61688905D01*
X193339074Y-61688905D01*
X193625443Y-62381972D01*
X194155239Y-62912693D01*
X194847805Y-63200272D01*
X195597705Y-63200926D01*
X196290772Y-62914557D01*
X196821493Y-62384761D01*
X197109072Y-61692195D01*
X197109726Y-60942295D01*
X196823357Y-60249228D01*
X196293561Y-59718507D01*
X195600995Y-59430928D01*
X194851095Y-59430274D01*
X194158028Y-59716643D01*
X193627307Y-60246439D01*
X193339728Y-60939005D01*
X193339074Y-61688905D01*
X188263969Y-61688905D01*
X188424894Y-61265110D01*
X188403504Y-60547354D01*
X188169984Y-59983586D01*
X187885486Y-59864120D01*
X186789605Y-60960000D01*
X186430395Y-60960000D01*
X185334514Y-59864120D01*
X185050016Y-59983586D01*
X184795106Y-60654890D01*
X183415267Y-60654890D01*
X183415313Y-60602538D01*
X183141097Y-59938885D01*
X182887169Y-59684514D01*
X185514120Y-59684514D01*
X186610000Y-60780395D01*
X187705880Y-59684514D01*
X187586414Y-59400016D01*
X186915110Y-59145106D01*
X186197354Y-59166496D01*
X185633586Y-59400016D01*
X185514120Y-59684514D01*
X182887169Y-59684514D01*
X182633785Y-59430688D01*
X181970612Y-59155314D01*
X181252538Y-59154687D01*
X180588885Y-59428903D01*
X180080688Y-59936215D01*
X179805314Y-60599388D01*
X179804687Y-61317462D01*
X116540598Y-61317462D01*
X116540926Y-60942295D01*
X116254557Y-60249228D01*
X115724761Y-59718507D01*
X115032195Y-59430928D01*
X114282295Y-59430274D01*
X113589228Y-59716643D01*
X113058507Y-60246439D01*
X112770928Y-60939005D01*
X112770274Y-61688905D01*
X112470000Y-61688905D01*
X112470000Y-59130000D01*
X197410000Y-59130000D01*
X197410000Y-156770000D01*
X197410000Y-156770000D01*
G37*
X197410000Y-156770000D02*
X112470000Y-156770000D01*
X112470000Y-154957705D01*
X112770274Y-154957705D01*
X113056643Y-155650772D01*
X113586439Y-156181493D01*
X114279005Y-156469072D01*
X115028905Y-156469726D01*
X115721972Y-156183357D01*
X116252693Y-155653561D01*
X116540272Y-154960995D01*
X116540274Y-154957705D01*
X193339074Y-154957705D01*
X193625443Y-155650772D01*
X194155239Y-156181493D01*
X194847805Y-156469072D01*
X195597705Y-156469726D01*
X196290772Y-156183357D01*
X196821493Y-155653561D01*
X197109072Y-154960995D01*
X197109726Y-154211095D01*
X196823357Y-153518028D01*
X196293561Y-152987307D01*
X195600995Y-152699728D01*
X194851095Y-152699074D01*
X194158028Y-152985443D01*
X193627307Y-153515239D01*
X193339728Y-154207805D01*
X193339074Y-154957705D01*
X116540274Y-154957705D01*
X116540926Y-154211095D01*
X116254557Y-153518028D01*
X115724761Y-152987307D01*
X115032195Y-152699728D01*
X114282295Y-152699074D01*
X113589228Y-152985443D01*
X113058507Y-153515239D01*
X112770928Y-154207805D01*
X112770274Y-154957705D01*
X112470000Y-154957705D01*
X112470000Y-144780000D01*
X183905907Y-144780000D01*
X184018946Y-145348285D01*
X184340853Y-145830054D01*
X184670026Y-146050000D01*
X184340853Y-146269946D01*
X184018946Y-146751715D01*
X183905907Y-147320000D01*
X184018946Y-147888285D01*
X184340853Y-148370054D01*
X184670026Y-148590000D01*
X184340853Y-148809946D01*
X184018946Y-149291715D01*
X183905907Y-149860000D01*
X184018946Y-150428285D01*
X184340853Y-150910054D01*
X184382452Y-150937850D01*
X184334683Y-150946838D01*
X184118559Y-151085910D01*
X183973569Y-151298110D01*
X183922560Y-151550000D01*
X183922560Y-153250000D01*
X183966838Y-153485317D01*
X184105910Y-153701441D01*
X184318110Y-153846431D01*
X184570000Y-153897440D01*
X186270000Y-153897440D01*
X186505317Y-153853162D01*
X186721441Y-153714090D01*
X186866431Y-153501890D01*
X186917440Y-153250000D01*
X186917440Y-151550000D01*
X186873162Y-151314683D01*
X186734090Y-151098559D01*
X186521890Y-150953569D01*
X186454459Y-150939914D01*
X186499147Y-150910054D01*
X186821054Y-150428285D01*
X186934093Y-149860000D01*
X186821054Y-149291715D01*
X186499147Y-148809946D01*
X186169974Y-148590000D01*
X186499147Y-148370054D01*
X186821054Y-147888285D01*
X186934093Y-147320000D01*
X186821054Y-146751715D01*
X186499147Y-146269946D01*
X186169974Y-146050000D01*
X186499147Y-145830054D01*
X186821054Y-145348285D01*
X186934093Y-144780000D01*
X186821054Y-144211715D01*
X186499147Y-143729946D01*
X186158447Y-143502298D01*
X186301358Y-143435183D01*
X186691645Y-143006924D01*
X186861476Y-142596890D01*
X186740155Y-142367000D01*
X185547000Y-142367000D01*
X185547000Y-142387000D01*
X185293000Y-142387000D01*
X185293000Y-142367000D01*
X184099845Y-142367000D01*
X183978524Y-142596890D01*
X184148355Y-143006924D01*
X184538642Y-143435183D01*
X184681553Y-143502298D01*
X184340853Y-143729946D01*
X184018946Y-144211715D01*
X183905907Y-144780000D01*
X112470000Y-144780000D01*
X112470000Y-137160000D01*
X183905907Y-137160000D01*
X184018946Y-137728285D01*
X184340853Y-138210054D01*
X184670026Y-138430000D01*
X184340853Y-138649946D01*
X184018946Y-139131715D01*
X183905907Y-139700000D01*
X184018946Y-140268285D01*
X184340853Y-140750054D01*
X184681553Y-140977702D01*
X184538642Y-141044817D01*
X184148355Y-141473076D01*
X183978524Y-141883110D01*
X184099845Y-142113000D01*
X185293000Y-142113000D01*
X185293000Y-142093000D01*
X185547000Y-142093000D01*
X185547000Y-142113000D01*
X186740155Y-142113000D01*
X186861476Y-141883110D01*
X186691645Y-141473076D01*
X186301358Y-141044817D01*
X186158447Y-140977702D01*
X186499147Y-140750054D01*
X186821054Y-140268285D01*
X186934093Y-139700000D01*
X186821054Y-139131715D01*
X186499147Y-138649946D01*
X186169974Y-138430000D01*
X186499147Y-138210054D01*
X186821054Y-137728285D01*
X186934093Y-137160000D01*
X186821054Y-136591715D01*
X186499147Y-136109946D01*
X186017378Y-135788039D01*
X185449093Y-135675000D01*
X185390907Y-135675000D01*
X184822622Y-135788039D01*
X184340853Y-136109946D01*
X184018946Y-136591715D01*
X183905907Y-137160000D01*
X112470000Y-137160000D01*
X112470000Y-123466661D01*
X123697758Y-123466661D01*
X123909990Y-123980303D01*
X124302630Y-124373629D01*
X124815900Y-124586757D01*
X125371661Y-124587242D01*
X125885303Y-124375010D01*
X126090457Y-124170213D01*
X126834392Y-124170213D01*
X126903857Y-124412397D01*
X127427302Y-124599144D01*
X127982368Y-124571362D01*
X128366143Y-124412397D01*
X128435608Y-124170213D01*
X127635000Y-123369605D01*
X126834392Y-124170213D01*
X126090457Y-124170213D01*
X126278629Y-123982370D01*
X126358395Y-123790273D01*
X126412603Y-123921143D01*
X126654787Y-123990608D01*
X127455395Y-123190000D01*
X127814605Y-123190000D01*
X128615213Y-123990608D01*
X128857397Y-123921143D01*
X128907509Y-123780682D01*
X128989990Y-123980303D01*
X129382630Y-124373629D01*
X129895900Y-124586757D01*
X130451661Y-124587242D01*
X130965303Y-124375010D01*
X131358629Y-123982370D01*
X131444949Y-123774488D01*
X131529990Y-123980303D01*
X131922630Y-124373629D01*
X132435900Y-124586757D01*
X132991661Y-124587242D01*
X133505303Y-124375010D01*
X133898629Y-123982370D01*
X133984949Y-123774488D01*
X134069990Y-123980303D01*
X134462630Y-124373629D01*
X134975900Y-124586757D01*
X135531661Y-124587242D01*
X136045303Y-124375010D01*
X136438629Y-123982370D01*
X136524949Y-123774488D01*
X136609990Y-123980303D01*
X137002630Y-124373629D01*
X137515900Y-124586757D01*
X138071661Y-124587242D01*
X138585303Y-124375010D01*
X138978629Y-123982370D01*
X139064949Y-123774488D01*
X139149990Y-123980303D01*
X139542630Y-124373629D01*
X140055900Y-124586757D01*
X140611661Y-124587242D01*
X141125303Y-124375010D01*
X141518629Y-123982370D01*
X141604949Y-123774488D01*
X141689990Y-123980303D01*
X142082630Y-124373629D01*
X142595900Y-124586757D01*
X143151661Y-124587242D01*
X143665303Y-124375010D01*
X143870457Y-124170213D01*
X144614392Y-124170213D01*
X144683857Y-124412397D01*
X145207302Y-124599144D01*
X145762368Y-124571362D01*
X146146143Y-124412397D01*
X146215608Y-124170213D01*
X145415000Y-123369605D01*
X144614392Y-124170213D01*
X143870457Y-124170213D01*
X144058629Y-123982370D01*
X144138395Y-123790273D01*
X144192603Y-123921143D01*
X144434787Y-123990608D01*
X145235395Y-123190000D01*
X145594605Y-123190000D01*
X146395213Y-123990608D01*
X146637397Y-123921143D01*
X146687509Y-123780682D01*
X146769990Y-123980303D01*
X147162630Y-124373629D01*
X147675900Y-124586757D01*
X148231661Y-124587242D01*
X148745303Y-124375010D01*
X149138629Y-123982370D01*
X149224949Y-123774488D01*
X149309990Y-123980303D01*
X149702630Y-124373629D01*
X150215900Y-124586757D01*
X150771661Y-124587242D01*
X151285303Y-124375010D01*
X151678629Y-123982370D01*
X151764949Y-123774488D01*
X151849990Y-123980303D01*
X152242630Y-124373629D01*
X152755900Y-124586757D01*
X153311661Y-124587242D01*
X153825303Y-124375010D01*
X154218629Y-123982370D01*
X154304949Y-123774488D01*
X154389990Y-123980303D01*
X154782630Y-124373629D01*
X155295900Y-124586757D01*
X155851661Y-124587242D01*
X156365303Y-124375010D01*
X156758629Y-123982370D01*
X156844949Y-123774488D01*
X156929990Y-123980303D01*
X157322630Y-124373629D01*
X157835900Y-124586757D01*
X158391661Y-124587242D01*
X158905303Y-124375010D01*
X159298629Y-123982370D01*
X159384949Y-123774488D01*
X159469990Y-123980303D01*
X159862630Y-124373629D01*
X160375900Y-124586757D01*
X160931661Y-124587242D01*
X161445303Y-124375010D01*
X161838629Y-123982370D01*
X162051757Y-123469100D01*
X162052242Y-122913339D01*
X161840010Y-122399697D01*
X161447370Y-122006371D01*
X160934100Y-121793243D01*
X160378339Y-121792758D01*
X159864697Y-122004990D01*
X159471371Y-122397630D01*
X159385051Y-122605512D01*
X159300010Y-122399697D01*
X158907370Y-122006371D01*
X158394100Y-121793243D01*
X157838339Y-121792758D01*
X157324697Y-122004990D01*
X156931371Y-122397630D01*
X156845051Y-122605512D01*
X156760010Y-122399697D01*
X156367370Y-122006371D01*
X155854100Y-121793243D01*
X155298339Y-121792758D01*
X154784697Y-122004990D01*
X154391371Y-122397630D01*
X154305051Y-122605512D01*
X154220010Y-122399697D01*
X153827370Y-122006371D01*
X153314100Y-121793243D01*
X152758339Y-121792758D01*
X152244697Y-122004990D01*
X151851371Y-122397630D01*
X151765051Y-122605512D01*
X151680010Y-122399697D01*
X151287370Y-122006371D01*
X150774100Y-121793243D01*
X150218339Y-121792758D01*
X149704697Y-122004990D01*
X149311371Y-122397630D01*
X149225051Y-122605512D01*
X149140010Y-122399697D01*
X148747370Y-122006371D01*
X148234100Y-121793243D01*
X147678339Y-121792758D01*
X147164697Y-122004990D01*
X146771371Y-122397630D01*
X146691605Y-122589727D01*
X146637397Y-122458857D01*
X146395213Y-122389392D01*
X145594605Y-123190000D01*
X145235395Y-123190000D01*
X144434787Y-122389392D01*
X144192603Y-122458857D01*
X144142491Y-122599318D01*
X144060010Y-122399697D01*
X143870432Y-122209787D01*
X144614392Y-122209787D01*
X145415000Y-123010395D01*
X146215608Y-122209787D01*
X146146143Y-121967603D01*
X145622698Y-121780856D01*
X145067632Y-121808638D01*
X144683857Y-121967603D01*
X144614392Y-122209787D01*
X143870432Y-122209787D01*
X143667370Y-122006371D01*
X143154100Y-121793243D01*
X142598339Y-121792758D01*
X142084697Y-122004990D01*
X141691371Y-122397630D01*
X141605051Y-122605512D01*
X141520010Y-122399697D01*
X141127370Y-122006371D01*
X140614100Y-121793243D01*
X140058339Y-121792758D01*
X139544697Y-122004990D01*
X139151371Y-122397630D01*
X139065051Y-122605512D01*
X138980010Y-122399697D01*
X138587370Y-122006371D01*
X138074100Y-121793243D01*
X137518339Y-121792758D01*
X137004697Y-122004990D01*
X136611371Y-122397630D01*
X136525051Y-122605512D01*
X136440010Y-122399697D01*
X136047370Y-122006371D01*
X135534100Y-121793243D01*
X134978339Y-121792758D01*
X134464697Y-122004990D01*
X134071371Y-122397630D01*
X133985051Y-122605512D01*
X133900010Y-122399697D01*
X133507370Y-122006371D01*
X132994100Y-121793243D01*
X132438339Y-121792758D01*
X131924697Y-122004990D01*
X131531371Y-122397630D01*
X131445051Y-122605512D01*
X131360010Y-122399697D01*
X130967370Y-122006371D01*
X130454100Y-121793243D01*
X129898339Y-121792758D01*
X129384697Y-122004990D01*
X128991371Y-122397630D01*
X128911605Y-122589727D01*
X128857397Y-122458857D01*
X128615213Y-122389392D01*
X127814605Y-123190000D01*
X127455395Y-123190000D01*
X126654787Y-122389392D01*
X126412603Y-122458857D01*
X126362491Y-122599318D01*
X126280010Y-122399697D01*
X126090432Y-122209787D01*
X126834392Y-122209787D01*
X127635000Y-123010395D01*
X128435608Y-122209787D01*
X128366143Y-121967603D01*
X127842698Y-121780856D01*
X127287632Y-121808638D01*
X126903857Y-121967603D01*
X126834392Y-122209787D01*
X126090432Y-122209787D01*
X125887370Y-122006371D01*
X125374100Y-121793243D01*
X124818339Y-121792758D01*
X124304697Y-122004990D01*
X123911371Y-122397630D01*
X123698243Y-122910900D01*
X123697758Y-123466661D01*
X112470000Y-123466661D01*
X112470000Y-117210000D01*
X177522560Y-117210000D01*
X177522560Y-119010000D01*
X177566838Y-119245317D01*
X177705910Y-119461441D01*
X177918110Y-119606431D01*
X177938534Y-119610567D01*
X177769449Y-119779357D01*
X177535267Y-120343330D01*
X177534735Y-120953991D01*
X177767932Y-121518371D01*
X178199357Y-121950551D01*
X178763330Y-122184733D01*
X179373991Y-122185265D01*
X179938371Y-121952068D01*
X180370551Y-121520643D01*
X180604733Y-120956670D01*
X180605265Y-120346009D01*
X180372068Y-119781629D01*
X180204120Y-119613387D01*
X180205317Y-119613162D01*
X180421441Y-119474090D01*
X180566431Y-119261890D01*
X180617440Y-119010000D01*
X180617440Y-117210000D01*
X187682560Y-117210000D01*
X187682560Y-119010000D01*
X187726838Y-119245317D01*
X187865910Y-119461441D01*
X188078110Y-119606431D01*
X188098534Y-119610567D01*
X187929449Y-119779357D01*
X187695267Y-120343330D01*
X187694735Y-120953991D01*
X187927932Y-121518371D01*
X188359357Y-121950551D01*
X188923330Y-122184733D01*
X189533991Y-122185265D01*
X190098371Y-121952068D01*
X190530551Y-121520643D01*
X190764733Y-120956670D01*
X190765265Y-120346009D01*
X190532068Y-119781629D01*
X190364120Y-119613387D01*
X190365317Y-119613162D01*
X190581441Y-119474090D01*
X190726431Y-119261890D01*
X190777440Y-119010000D01*
X190777440Y-117210000D01*
X190733162Y-116974683D01*
X190594090Y-116758559D01*
X190381890Y-116613569D01*
X190130000Y-116562560D01*
X188330000Y-116562560D01*
X188094683Y-116606838D01*
X187878559Y-116745910D01*
X187733569Y-116958110D01*
X187682560Y-117210000D01*
X180617440Y-117210000D01*
X180573162Y-116974683D01*
X180434090Y-116758559D01*
X180221890Y-116613569D01*
X179970000Y-116562560D01*
X178170000Y-116562560D01*
X177934683Y-116606838D01*
X177718559Y-116745910D01*
X177573569Y-116958110D01*
X177522560Y-117210000D01*
X112470000Y-117210000D01*
X112470000Y-111731887D01*
X177635000Y-111731887D01*
X177635000Y-111788113D01*
X177744233Y-112337264D01*
X178055302Y-112802811D01*
X178520849Y-113113880D01*
X179070000Y-113223113D01*
X179619151Y-113113880D01*
X180084698Y-112802811D01*
X180395767Y-112337264D01*
X180505000Y-111788113D01*
X180505000Y-111731887D01*
X187795000Y-111731887D01*
X187795000Y-111788113D01*
X187904233Y-112337264D01*
X188215302Y-112802811D01*
X188680849Y-113113880D01*
X189230000Y-113223113D01*
X189779151Y-113113880D01*
X190244698Y-112802811D01*
X190555767Y-112337264D01*
X190665000Y-111788113D01*
X190665000Y-111731887D01*
X190555767Y-111182736D01*
X190244698Y-110717189D01*
X189779151Y-110406120D01*
X189230000Y-110296887D01*
X188680849Y-110406120D01*
X188215302Y-110717189D01*
X187904233Y-111182736D01*
X187795000Y-111731887D01*
X180505000Y-111731887D01*
X180395767Y-111182736D01*
X180084698Y-110717189D01*
X179619151Y-110406120D01*
X179070000Y-110296887D01*
X178520849Y-110406120D01*
X178055302Y-110717189D01*
X177744233Y-111182736D01*
X177635000Y-111731887D01*
X112470000Y-111731887D01*
X112470000Y-102607745D01*
X178241861Y-102607745D01*
X178315995Y-102853864D01*
X178853223Y-103046965D01*
X179423454Y-103019778D01*
X179824005Y-102853864D01*
X179898139Y-102607745D01*
X188401861Y-102607745D01*
X188475995Y-102853864D01*
X189013223Y-103046965D01*
X189583454Y-103019778D01*
X189984005Y-102853864D01*
X190058139Y-102607745D01*
X189230000Y-101779605D01*
X188401861Y-102607745D01*
X179898139Y-102607745D01*
X179070000Y-101779605D01*
X178241861Y-102607745D01*
X112470000Y-102607745D01*
X112470000Y-101383223D01*
X177623035Y-101383223D01*
X177650222Y-101953454D01*
X177816136Y-102354005D01*
X178062255Y-102428139D01*
X178890395Y-101600000D01*
X179249605Y-101600000D01*
X180077745Y-102428139D01*
X180323864Y-102354005D01*
X180516965Y-101816777D01*
X180496295Y-101383223D01*
X187783035Y-101383223D01*
X187810222Y-101953454D01*
X187976136Y-102354005D01*
X188222255Y-102428139D01*
X189050395Y-101600000D01*
X189409605Y-101600000D01*
X190237745Y-102428139D01*
X190483864Y-102354005D01*
X190676965Y-101816777D01*
X190649778Y-101246546D01*
X190483864Y-100845995D01*
X190237745Y-100771861D01*
X189409605Y-101600000D01*
X189050395Y-101600000D01*
X188222255Y-100771861D01*
X187976136Y-100845995D01*
X187783035Y-101383223D01*
X180496295Y-101383223D01*
X180489778Y-101246546D01*
X180323864Y-100845995D01*
X180077745Y-100771861D01*
X179249605Y-101600000D01*
X178890395Y-101600000D01*
X178062255Y-100771861D01*
X177816136Y-100845995D01*
X177623035Y-101383223D01*
X112470000Y-101383223D01*
X112470000Y-100592255D01*
X178241861Y-100592255D01*
X179070000Y-101420395D01*
X179898139Y-100592255D01*
X188401861Y-100592255D01*
X189230000Y-101420395D01*
X190058139Y-100592255D01*
X189984005Y-100346136D01*
X189446777Y-100153035D01*
X188876546Y-100180222D01*
X188475995Y-100346136D01*
X188401861Y-100592255D01*
X179898139Y-100592255D01*
X179824005Y-100346136D01*
X179286777Y-100153035D01*
X178716546Y-100180222D01*
X178315995Y-100346136D01*
X178241861Y-100592255D01*
X112470000Y-100592255D01*
X112470000Y-95526661D01*
X123697758Y-95526661D01*
X123909990Y-96040303D01*
X124302630Y-96433629D01*
X124815900Y-96646757D01*
X125371661Y-96647242D01*
X125885303Y-96435010D01*
X126090457Y-96230213D01*
X126834392Y-96230213D01*
X126903857Y-96472397D01*
X127427302Y-96659144D01*
X127982368Y-96631362D01*
X128366143Y-96472397D01*
X128435608Y-96230213D01*
X127635000Y-95429605D01*
X126834392Y-96230213D01*
X126090457Y-96230213D01*
X126278629Y-96042370D01*
X126358395Y-95850273D01*
X126412603Y-95981143D01*
X126654787Y-96050608D01*
X127455395Y-95250000D01*
X127814605Y-95250000D01*
X128615213Y-96050608D01*
X128857397Y-95981143D01*
X128907509Y-95840682D01*
X128989990Y-96040303D01*
X129382630Y-96433629D01*
X129895900Y-96646757D01*
X130451661Y-96647242D01*
X130965303Y-96435010D01*
X131358629Y-96042370D01*
X131444949Y-95834488D01*
X131529990Y-96040303D01*
X131922630Y-96433629D01*
X132435900Y-96646757D01*
X132991661Y-96647242D01*
X133505303Y-96435010D01*
X133898629Y-96042370D01*
X133984949Y-95834488D01*
X134069990Y-96040303D01*
X134462630Y-96433629D01*
X134975900Y-96646757D01*
X135531661Y-96647242D01*
X136045303Y-96435010D01*
X136250457Y-96230213D01*
X136994392Y-96230213D01*
X137063857Y-96472397D01*
X137587302Y-96659144D01*
X138142368Y-96631362D01*
X138526143Y-96472397D01*
X138595608Y-96230213D01*
X137795000Y-95429605D01*
X136994392Y-96230213D01*
X136250457Y-96230213D01*
X136438629Y-96042370D01*
X136518395Y-95850273D01*
X136572603Y-95981143D01*
X136814787Y-96050608D01*
X137615395Y-95250000D01*
X137974605Y-95250000D01*
X138775213Y-96050608D01*
X139017397Y-95981143D01*
X139067509Y-95840682D01*
X139149990Y-96040303D01*
X139542630Y-96433629D01*
X140055900Y-96646757D01*
X140611661Y-96647242D01*
X141125303Y-96435010D01*
X141518629Y-96042370D01*
X141604949Y-95834488D01*
X141689990Y-96040303D01*
X142082630Y-96433629D01*
X142595900Y-96646757D01*
X143151661Y-96647242D01*
X143665303Y-96435010D01*
X144058629Y-96042370D01*
X144144949Y-95834488D01*
X144229990Y-96040303D01*
X144622630Y-96433629D01*
X145135900Y-96646757D01*
X145691661Y-96647242D01*
X146205303Y-96435010D01*
X146598629Y-96042370D01*
X146684949Y-95834488D01*
X146769990Y-96040303D01*
X147162630Y-96433629D01*
X147675900Y-96646757D01*
X148231661Y-96647242D01*
X148745303Y-96435010D01*
X149138629Y-96042370D01*
X149224949Y-95834488D01*
X149309990Y-96040303D01*
X149702630Y-96433629D01*
X150215900Y-96646757D01*
X150771661Y-96647242D01*
X151285303Y-96435010D01*
X151678629Y-96042370D01*
X151764949Y-95834488D01*
X151849990Y-96040303D01*
X152242630Y-96433629D01*
X152755900Y-96646757D01*
X153311661Y-96647242D01*
X153825303Y-96435010D01*
X154218629Y-96042370D01*
X154304949Y-95834488D01*
X154389990Y-96040303D01*
X154782630Y-96433629D01*
X155295900Y-96646757D01*
X155851661Y-96647242D01*
X156365303Y-96435010D01*
X156570457Y-96230213D01*
X157314392Y-96230213D01*
X157383857Y-96472397D01*
X157907302Y-96659144D01*
X158462368Y-96631362D01*
X158846143Y-96472397D01*
X158915608Y-96230213D01*
X158115000Y-95429605D01*
X157314392Y-96230213D01*
X156570457Y-96230213D01*
X156758629Y-96042370D01*
X156838395Y-95850273D01*
X156892603Y-95981143D01*
X157134787Y-96050608D01*
X157935395Y-95250000D01*
X158294605Y-95250000D01*
X159095213Y-96050608D01*
X159337397Y-95981143D01*
X159387509Y-95840682D01*
X159469990Y-96040303D01*
X159862630Y-96433629D01*
X160375900Y-96646757D01*
X160931661Y-96647242D01*
X161445303Y-96435010D01*
X161838629Y-96042370D01*
X162051757Y-95529100D01*
X162052188Y-95034868D01*
X183104737Y-95034868D01*
X183215641Y-95312099D01*
X183861593Y-95555323D01*
X184551453Y-95532836D01*
X185084359Y-95312099D01*
X185195263Y-95034868D01*
X184150000Y-93989605D01*
X183104737Y-95034868D01*
X162052188Y-95034868D01*
X162052242Y-94973339D01*
X161840010Y-94459697D01*
X161447370Y-94066371D01*
X160934100Y-93853243D01*
X160378339Y-93852758D01*
X159864697Y-94064990D01*
X159471371Y-94457630D01*
X159391605Y-94649727D01*
X159337397Y-94518857D01*
X159095213Y-94449392D01*
X158294605Y-95250000D01*
X157935395Y-95250000D01*
X157134787Y-94449392D01*
X156892603Y-94518857D01*
X156842491Y-94659318D01*
X156760010Y-94459697D01*
X156570432Y-94269787D01*
X157314392Y-94269787D01*
X158115000Y-95070395D01*
X158915608Y-94269787D01*
X158846143Y-94027603D01*
X158322698Y-93840856D01*
X157767632Y-93868638D01*
X157383857Y-94027603D01*
X157314392Y-94269787D01*
X156570432Y-94269787D01*
X156367370Y-94066371D01*
X155854100Y-93853243D01*
X155298339Y-93852758D01*
X154784697Y-94064990D01*
X154391371Y-94457630D01*
X154305051Y-94665512D01*
X154220010Y-94459697D01*
X153827370Y-94066371D01*
X153314100Y-93853243D01*
X152758339Y-93852758D01*
X152244697Y-94064990D01*
X151851371Y-94457630D01*
X151765051Y-94665512D01*
X151680010Y-94459697D01*
X151287370Y-94066371D01*
X150774100Y-93853243D01*
X150218339Y-93852758D01*
X149704697Y-94064990D01*
X149311371Y-94457630D01*
X149225051Y-94665512D01*
X149140010Y-94459697D01*
X148747370Y-94066371D01*
X148234100Y-93853243D01*
X147678339Y-93852758D01*
X147164697Y-94064990D01*
X146771371Y-94457630D01*
X146685051Y-94665512D01*
X146600010Y-94459697D01*
X146207370Y-94066371D01*
X145694100Y-93853243D01*
X145138339Y-93852758D01*
X144624697Y-94064990D01*
X144231371Y-94457630D01*
X144145051Y-94665512D01*
X144060010Y-94459697D01*
X143667370Y-94066371D01*
X143154100Y-93853243D01*
X142598339Y-93852758D01*
X142084697Y-94064990D01*
X141691371Y-94457630D01*
X141605051Y-94665512D01*
X141520010Y-94459697D01*
X141127370Y-94066371D01*
X140614100Y-93853243D01*
X140058339Y-93852758D01*
X139544697Y-94064990D01*
X139151371Y-94457630D01*
X139071605Y-94649727D01*
X139017397Y-94518857D01*
X138775213Y-94449392D01*
X137974605Y-95250000D01*
X137615395Y-95250000D01*
X136814787Y-94449392D01*
X136572603Y-94518857D01*
X136522491Y-94659318D01*
X136440010Y-94459697D01*
X136250432Y-94269787D01*
X136994392Y-94269787D01*
X137795000Y-95070395D01*
X138595608Y-94269787D01*
X138526143Y-94027603D01*
X138002698Y-93840856D01*
X137447632Y-93868638D01*
X137063857Y-94027603D01*
X136994392Y-94269787D01*
X136250432Y-94269787D01*
X136047370Y-94066371D01*
X135534100Y-93853243D01*
X134978339Y-93852758D01*
X134464697Y-94064990D01*
X134071371Y-94457630D01*
X133985051Y-94665512D01*
X133900010Y-94459697D01*
X133507370Y-94066371D01*
X132994100Y-93853243D01*
X132438339Y-93852758D01*
X131924697Y-94064990D01*
X131531371Y-94457630D01*
X131445051Y-94665512D01*
X131360010Y-94459697D01*
X130967370Y-94066371D01*
X130454100Y-93853243D01*
X129898339Y-93852758D01*
X129384697Y-94064990D01*
X128991371Y-94457630D01*
X128911605Y-94649727D01*
X128857397Y-94518857D01*
X128615213Y-94449392D01*
X127814605Y-95250000D01*
X127455395Y-95250000D01*
X126654787Y-94449392D01*
X126412603Y-94518857D01*
X126362491Y-94659318D01*
X126280010Y-94459697D01*
X126090432Y-94269787D01*
X126834392Y-94269787D01*
X127635000Y-95070395D01*
X128435608Y-94269787D01*
X128366143Y-94027603D01*
X127842698Y-93840856D01*
X127287632Y-93868638D01*
X126903857Y-94027603D01*
X126834392Y-94269787D01*
X126090432Y-94269787D01*
X125887370Y-94066371D01*
X125374100Y-93853243D01*
X124818339Y-93852758D01*
X124304697Y-94064990D01*
X123911371Y-94457630D01*
X123698243Y-94970900D01*
X123697758Y-95526661D01*
X112470000Y-95526661D01*
X112470000Y-93521593D01*
X182404677Y-93521593D01*
X182427164Y-94211453D01*
X182647901Y-94744359D01*
X182925132Y-94855263D01*
X183970395Y-93810000D01*
X184329605Y-93810000D01*
X185374868Y-94855263D01*
X185652099Y-94744359D01*
X185895323Y-94098407D01*
X185872836Y-93408547D01*
X185652099Y-92875641D01*
X185374868Y-92764737D01*
X184329605Y-93810000D01*
X183970395Y-93810000D01*
X182925132Y-92764737D01*
X182647901Y-92875641D01*
X182404677Y-93521593D01*
X112470000Y-93521593D01*
X112470000Y-92585132D01*
X183104737Y-92585132D01*
X184150000Y-93630395D01*
X185195263Y-92585132D01*
X185084359Y-92307901D01*
X184438407Y-92064677D01*
X183748547Y-92087164D01*
X183215641Y-92307901D01*
X183104737Y-92585132D01*
X112470000Y-92585132D01*
X112470000Y-87670089D01*
X118656743Y-87670089D01*
X118882344Y-88216086D01*
X119299717Y-88634188D01*
X119845319Y-88860742D01*
X120436089Y-88861257D01*
X120982086Y-88635656D01*
X121198160Y-88419958D01*
X121817647Y-88419958D01*
X121897920Y-88671259D01*
X122453279Y-88872718D01*
X123043458Y-88846315D01*
X123466080Y-88671259D01*
X123546353Y-88419958D01*
X122682000Y-87555605D01*
X121817647Y-88419958D01*
X121198160Y-88419958D01*
X121400188Y-88218283D01*
X121419951Y-88170688D01*
X121638042Y-88240353D01*
X122502395Y-87376000D01*
X122861605Y-87376000D01*
X123725958Y-88240353D01*
X123977259Y-88160080D01*
X124155005Y-87670089D01*
X163614743Y-87670089D01*
X163840344Y-88216086D01*
X164257717Y-88634188D01*
X164803319Y-88860742D01*
X165394089Y-88861257D01*
X165940086Y-88635656D01*
X166156160Y-88419958D01*
X166775647Y-88419958D01*
X166855920Y-88671259D01*
X167411279Y-88872718D01*
X168001458Y-88846315D01*
X168424080Y-88671259D01*
X168504353Y-88419958D01*
X167640000Y-87555605D01*
X166775647Y-88419958D01*
X166156160Y-88419958D01*
X166358188Y-88218283D01*
X166377951Y-88170688D01*
X166596042Y-88240353D01*
X167460395Y-87376000D01*
X167819605Y-87376000D01*
X168683958Y-88240353D01*
X168935259Y-88160080D01*
X169136718Y-87604721D01*
X169110315Y-87014542D01*
X168935259Y-86591920D01*
X168683958Y-86511647D01*
X167819605Y-87376000D01*
X167460395Y-87376000D01*
X166596042Y-86511647D01*
X166378360Y-86581181D01*
X166359656Y-86535914D01*
X166156140Y-86332042D01*
X166775647Y-86332042D01*
X167640000Y-87196395D01*
X168504353Y-86332042D01*
X168424080Y-86080741D01*
X167868721Y-85879282D01*
X167278542Y-85905685D01*
X166855920Y-86080741D01*
X166775647Y-86332042D01*
X166156140Y-86332042D01*
X165942283Y-86117812D01*
X165396681Y-85891258D01*
X164805911Y-85890743D01*
X164259914Y-86116344D01*
X163841812Y-86533717D01*
X163615258Y-87079319D01*
X163614743Y-87670089D01*
X124155005Y-87670089D01*
X124178718Y-87604721D01*
X124152315Y-87014542D01*
X123977259Y-86591920D01*
X123725958Y-86511647D01*
X122861605Y-87376000D01*
X122502395Y-87376000D01*
X121638042Y-86511647D01*
X121420360Y-86581181D01*
X121401656Y-86535914D01*
X121198140Y-86332042D01*
X121817647Y-86332042D01*
X122682000Y-87196395D01*
X123546353Y-86332042D01*
X123466080Y-86080741D01*
X122910721Y-85879282D01*
X122320542Y-85905685D01*
X121897920Y-86080741D01*
X121817647Y-86332042D01*
X121198140Y-86332042D01*
X120984283Y-86117812D01*
X120438681Y-85891258D01*
X119847911Y-85890743D01*
X119301914Y-86116344D01*
X118883812Y-86533717D01*
X118657258Y-87079319D01*
X118656743Y-87670089D01*
X112470000Y-87670089D01*
X112470000Y-79253599D01*
X182414699Y-79253599D01*
X182678281Y-79891515D01*
X183165918Y-80380004D01*
X183803373Y-80644699D01*
X184493599Y-80645301D01*
X185131515Y-80381719D01*
X185620004Y-79894082D01*
X185884699Y-79256627D01*
X185885301Y-78566401D01*
X185621719Y-77928485D01*
X185134082Y-77439996D01*
X184496627Y-77175301D01*
X183806401Y-77174699D01*
X183168485Y-77438281D01*
X182679996Y-77925918D01*
X182415301Y-78563373D01*
X182414699Y-79253599D01*
X112470000Y-79253599D01*
X112470000Y-77637089D01*
X118656743Y-77637089D01*
X118882344Y-78183086D01*
X119299717Y-78601188D01*
X119845319Y-78827742D01*
X120436089Y-78828257D01*
X120982086Y-78602656D01*
X121198160Y-78386958D01*
X121817647Y-78386958D01*
X121897920Y-78638259D01*
X122453279Y-78839718D01*
X123043458Y-78813315D01*
X123466080Y-78638259D01*
X123546353Y-78386958D01*
X122682000Y-77522605D01*
X121817647Y-78386958D01*
X121198160Y-78386958D01*
X121400188Y-78185283D01*
X121419951Y-78137688D01*
X121638042Y-78207353D01*
X122502395Y-77343000D01*
X122861605Y-77343000D01*
X123725958Y-78207353D01*
X123977259Y-78127080D01*
X124155005Y-77637089D01*
X163614743Y-77637089D01*
X163840344Y-78183086D01*
X164257717Y-78601188D01*
X164803319Y-78827742D01*
X165394089Y-78828257D01*
X165940086Y-78602656D01*
X166156160Y-78386958D01*
X166775647Y-78386958D01*
X166855920Y-78638259D01*
X167411279Y-78839718D01*
X168001458Y-78813315D01*
X168424080Y-78638259D01*
X168504353Y-78386958D01*
X167640000Y-77522605D01*
X166775647Y-78386958D01*
X166156160Y-78386958D01*
X166358188Y-78185283D01*
X166377951Y-78137688D01*
X166596042Y-78207353D01*
X167460395Y-77343000D01*
X167819605Y-77343000D01*
X168683958Y-78207353D01*
X168935259Y-78127080D01*
X169136718Y-77571721D01*
X169110315Y-76981542D01*
X168935259Y-76558920D01*
X168683958Y-76478647D01*
X167819605Y-77343000D01*
X167460395Y-77343000D01*
X166596042Y-76478647D01*
X166378360Y-76548181D01*
X166359656Y-76502914D01*
X166156140Y-76299042D01*
X166775647Y-76299042D01*
X167640000Y-77163395D01*
X168504353Y-76299042D01*
X168424080Y-76047741D01*
X167868721Y-75846282D01*
X167278542Y-75872685D01*
X166855920Y-76047741D01*
X166775647Y-76299042D01*
X166156140Y-76299042D01*
X165942283Y-76084812D01*
X165396681Y-75858258D01*
X164805911Y-75857743D01*
X164259914Y-76083344D01*
X163841812Y-76500717D01*
X163615258Y-77046319D01*
X163614743Y-77637089D01*
X124155005Y-77637089D01*
X124178718Y-77571721D01*
X124152315Y-76981542D01*
X123977259Y-76558920D01*
X123725958Y-76478647D01*
X122861605Y-77343000D01*
X122502395Y-77343000D01*
X121638042Y-76478647D01*
X121420360Y-76548181D01*
X121401656Y-76502914D01*
X121198140Y-76299042D01*
X121817647Y-76299042D01*
X122682000Y-77163395D01*
X123546353Y-76299042D01*
X123466080Y-76047741D01*
X122910721Y-75846282D01*
X122320542Y-75872685D01*
X121897920Y-76047741D01*
X121817647Y-76299042D01*
X121198140Y-76299042D01*
X120984283Y-76084812D01*
X120438681Y-75858258D01*
X119847911Y-75857743D01*
X119301914Y-76083344D01*
X118883812Y-76500717D01*
X118657258Y-77046319D01*
X118656743Y-77637089D01*
X112470000Y-77637089D01*
X112470000Y-71317462D01*
X182304687Y-71317462D01*
X182578903Y-71981115D01*
X183086215Y-72489312D01*
X183749388Y-72764686D01*
X184467462Y-72765313D01*
X185131115Y-72491097D01*
X185639312Y-71983785D01*
X185914686Y-71320612D01*
X185915313Y-70602538D01*
X185641097Y-69938885D01*
X185133785Y-69430688D01*
X184470612Y-69155314D01*
X183752538Y-69154687D01*
X183088885Y-69428903D01*
X182580688Y-69936215D01*
X182305314Y-70599388D01*
X182304687Y-71317462D01*
X112470000Y-71317462D01*
X112470000Y-61688905D01*
X112770274Y-61688905D01*
X113056643Y-62381972D01*
X113586439Y-62912693D01*
X114279005Y-63200272D01*
X115028905Y-63200926D01*
X115721972Y-62914557D01*
X116252693Y-62384761D01*
X116540272Y-61692195D01*
X116540598Y-61317462D01*
X179804687Y-61317462D01*
X180078903Y-61981115D01*
X180586215Y-62489312D01*
X181249388Y-62764686D01*
X181967462Y-62765313D01*
X182631115Y-62491097D01*
X182887171Y-62235486D01*
X185514120Y-62235486D01*
X185633586Y-62519984D01*
X186304890Y-62774894D01*
X187022646Y-62753504D01*
X187586414Y-62519984D01*
X187705880Y-62235486D01*
X186610000Y-61139605D01*
X185514120Y-62235486D01*
X182887171Y-62235486D01*
X183139312Y-61983785D01*
X183414686Y-61320612D01*
X183415267Y-60654890D01*
X184795106Y-60654890D01*
X184816496Y-61372646D01*
X185050016Y-61936414D01*
X185334514Y-62055880D01*
X186430395Y-60960000D01*
X186789605Y-60960000D01*
X187885486Y-62055880D01*
X188169984Y-61936414D01*
X188263969Y-61688905D01*
X193339074Y-61688905D01*
X193625443Y-62381972D01*
X194155239Y-62912693D01*
X194847805Y-63200272D01*
X195597705Y-63200926D01*
X196290772Y-62914557D01*
X196821493Y-62384761D01*
X197109072Y-61692195D01*
X197109726Y-60942295D01*
X196823357Y-60249228D01*
X196293561Y-59718507D01*
X195600995Y-59430928D01*
X194851095Y-59430274D01*
X194158028Y-59716643D01*
X193627307Y-60246439D01*
X193339728Y-60939005D01*
X193339074Y-61688905D01*
X188263969Y-61688905D01*
X188424894Y-61265110D01*
X188403504Y-60547354D01*
X188169984Y-59983586D01*
X187885486Y-59864120D01*
X186789605Y-60960000D01*
X186430395Y-60960000D01*
X185334514Y-59864120D01*
X185050016Y-59983586D01*
X184795106Y-60654890D01*
X183415267Y-60654890D01*
X183415313Y-60602538D01*
X183141097Y-59938885D01*
X182887169Y-59684514D01*
X185514120Y-59684514D01*
X186610000Y-60780395D01*
X187705880Y-59684514D01*
X187586414Y-59400016D01*
X186915110Y-59145106D01*
X186197354Y-59166496D01*
X185633586Y-59400016D01*
X185514120Y-59684514D01*
X182887169Y-59684514D01*
X182633785Y-59430688D01*
X181970612Y-59155314D01*
X181252538Y-59154687D01*
X180588885Y-59428903D01*
X180080688Y-59936215D01*
X179805314Y-60599388D01*
X179804687Y-61317462D01*
X116540598Y-61317462D01*
X116540926Y-60942295D01*
X116254557Y-60249228D01*
X115724761Y-59718507D01*
X115032195Y-59430928D01*
X114282295Y-59430274D01*
X113589228Y-59716643D01*
X113058507Y-60246439D01*
X112770928Y-60939005D01*
X112770274Y-61688905D01*
X112470000Y-61688905D01*
X112470000Y-59130000D01*
X197410000Y-59130000D01*
X197410000Y-156770000D01*
M02*
