M48
;DRILL file {KiCad 4.0.7-e2-6376~58~ubuntu16.04.1} date Mon Jan 29 12:29:45 2018
;FORMAT={-:-/ absolute / metric / decimal}
FMAT,2
METRIC,TZ
T1C0.762
T2C0.800
T3C0.900
T4C1.000
T5C1.016
T6C1.300
%
G90
G05
M71
T1
X125.095Y-95.25
X125.095Y-123.19
X127.635Y-95.25
X127.635Y-123.19
X130.175Y-95.25
X130.175Y-123.19
X132.715Y-95.25
X132.715Y-123.19
X135.255Y-95.25
X135.255Y-123.19
X137.795Y-95.25
X137.795Y-123.19
X140.335Y-95.25
X140.335Y-123.19
X142.875Y-95.25
X142.875Y-123.19
X145.415Y-95.25
X145.415Y-123.19
X147.955Y-95.25
X147.955Y-123.19
X150.495Y-95.25
X150.495Y-123.19
X153.035Y-95.25
X153.035Y-123.19
X155.575Y-95.25
X155.575Y-123.19
X158.115Y-95.25
X158.115Y-123.19
X160.655Y-95.25
X160.655Y-123.19
T2
X179.07Y-101.6
X179.07Y-111.76
X189.23Y-101.6
X189.23Y-111.76
T3
X179.07Y-118.11
X179.07Y-120.65
X189.23Y-118.11
X189.23Y-120.65
T4
X184.15Y-78.91
X184.15Y-93.81
X185.42Y-137.16
X185.42Y-139.7
X185.42Y-142.24
X185.42Y-144.78
X185.42Y-147.32
X185.42Y-149.86
X185.42Y-152.4
T5
X120.142Y-77.343
X120.142Y-87.376
X122.682Y-77.343
X122.682Y-87.376
X165.1Y-77.343
X165.1Y-87.376
X167.64Y-77.343
X167.64Y-87.376
T6
X181.61Y-60.96
X184.11Y-70.96
X186.61Y-60.96
T0
M30
