G04 #@! TF.FileFunction,Legend,Top*
%FSLAX46Y46*%
G04 Gerber Fmt 4.6, Leading zero omitted, Abs format (unit mm)*
G04 Created by KiCad (PCBNEW 4.0.7-e2-6376~58~ubuntu16.04.1) date Mon Jan 29 12:29:23 2018*
%MOMM*%
%LPD*%
G01*
G04 APERTURE LIST*
%ADD10C,0.100000*%
%ADD11C,0.150000*%
%ADD12C,0.120000*%
G04 APERTURE END LIST*
D10*
D11*
X195600070Y-86360000D02*
G75*
G03X195600070Y-86360000I-11450070J0D01*
G01*
D12*
X179069538Y-122370000D02*
G75*
G03X180614830Y-116820000I462J2990000D01*
G01*
X179070462Y-122370000D02*
G75*
G02X177525170Y-116820000I-462J2990000D01*
G01*
X181570000Y-119380000D02*
G75*
G03X181570000Y-119380000I-2500000J0D01*
G01*
X180615000Y-116820000D02*
X177525000Y-116820000D01*
X189229538Y-122370000D02*
G75*
G03X190774830Y-116820000I462J2990000D01*
G01*
X189230462Y-122370000D02*
G75*
G02X187685170Y-116820000I-462J2990000D01*
G01*
X191730000Y-119380000D02*
G75*
G03X191730000Y-119380000I-2500000J0D01*
G01*
X190775000Y-116820000D02*
X187685000Y-116820000D01*
X183980000Y-153730000D02*
X183980000Y-135830000D01*
X183980000Y-135830000D02*
X181320000Y-135830000D01*
X181320000Y-135830000D02*
X181320000Y-153730000D01*
X181320000Y-153730000D02*
X183980000Y-153730000D01*
X181320000Y-152780000D02*
X175320000Y-152780000D01*
X175320000Y-152780000D02*
X175320000Y-152020000D01*
X175320000Y-152020000D02*
X181320000Y-152020000D01*
X181320000Y-152720000D02*
X175320000Y-152720000D01*
X181320000Y-152600000D02*
X175320000Y-152600000D01*
X181320000Y-152480000D02*
X175320000Y-152480000D01*
X181320000Y-152360000D02*
X175320000Y-152360000D01*
X181320000Y-152240000D02*
X175320000Y-152240000D01*
X181320000Y-152120000D02*
X175320000Y-152120000D01*
X184310000Y-152780000D02*
X183980000Y-152780000D01*
X184310000Y-152020000D02*
X183980000Y-152020000D01*
X183980000Y-151130000D02*
X181320000Y-151130000D01*
X181320000Y-150240000D02*
X175320000Y-150240000D01*
X175320000Y-150240000D02*
X175320000Y-149480000D01*
X175320000Y-149480000D02*
X181320000Y-149480000D01*
X184377071Y-150240000D02*
X183980000Y-150240000D01*
X184377071Y-149480000D02*
X183980000Y-149480000D01*
X183980000Y-148590000D02*
X181320000Y-148590000D01*
X181320000Y-147700000D02*
X175320000Y-147700000D01*
X175320000Y-147700000D02*
X175320000Y-146940000D01*
X175320000Y-146940000D02*
X181320000Y-146940000D01*
X184377071Y-147700000D02*
X183980000Y-147700000D01*
X184377071Y-146940000D02*
X183980000Y-146940000D01*
X183980000Y-146050000D02*
X181320000Y-146050000D01*
X181320000Y-145160000D02*
X175320000Y-145160000D01*
X175320000Y-145160000D02*
X175320000Y-144400000D01*
X175320000Y-144400000D02*
X181320000Y-144400000D01*
X184377071Y-145160000D02*
X183980000Y-145160000D01*
X184377071Y-144400000D02*
X183980000Y-144400000D01*
X183980000Y-143510000D02*
X181320000Y-143510000D01*
X181320000Y-142620000D02*
X175320000Y-142620000D01*
X175320000Y-142620000D02*
X175320000Y-141860000D01*
X175320000Y-141860000D02*
X181320000Y-141860000D01*
X184377071Y-142620000D02*
X183980000Y-142620000D01*
X184377071Y-141860000D02*
X183980000Y-141860000D01*
X183980000Y-140970000D02*
X181320000Y-140970000D01*
X181320000Y-140080000D02*
X175320000Y-140080000D01*
X175320000Y-140080000D02*
X175320000Y-139320000D01*
X175320000Y-139320000D02*
X181320000Y-139320000D01*
X184377071Y-140080000D02*
X183980000Y-140080000D01*
X184377071Y-139320000D02*
X183980000Y-139320000D01*
X183980000Y-138430000D02*
X181320000Y-138430000D01*
X181320000Y-137540000D02*
X175320000Y-137540000D01*
X175320000Y-137540000D02*
X175320000Y-136780000D01*
X175320000Y-136780000D02*
X181320000Y-136780000D01*
X184377071Y-137540000D02*
X183980000Y-137540000D01*
X184377071Y-136780000D02*
X183980000Y-136780000D01*
X186690000Y-152400000D02*
X186690000Y-153670000D01*
X186690000Y-153670000D02*
X185420000Y-153670000D01*
X180380000Y-103470000D02*
X177760000Y-103470000D01*
X177760000Y-103470000D02*
X177760000Y-109890000D01*
X177760000Y-109890000D02*
X180380000Y-109890000D01*
X180380000Y-109890000D02*
X180380000Y-103470000D01*
X179070000Y-102580000D02*
X179070000Y-103470000D01*
X179070000Y-110780000D02*
X179070000Y-109890000D01*
X190540000Y-103470000D02*
X187920000Y-103470000D01*
X187920000Y-103470000D02*
X187920000Y-109890000D01*
X187920000Y-109890000D02*
X190540000Y-109890000D01*
X190540000Y-109890000D02*
X190540000Y-103470000D01*
X189230000Y-102580000D02*
X189230000Y-103470000D01*
X189230000Y-110780000D02*
X189230000Y-109890000D01*
D11*
X162700000Y-103220000D02*
X162700000Y-115220000D01*
X162700000Y-115220000D02*
X148700000Y-115220000D01*
X148700000Y-115220000D02*
X148700000Y-103220000D01*
X148700000Y-103220000D02*
X162700000Y-103220000D01*
X163830000Y-111760000D02*
X163830000Y-104140000D01*
X163830000Y-104140000D02*
X168910000Y-104140000D01*
X168910000Y-104140000D02*
X168910000Y-105410000D01*
X168910000Y-105410000D02*
X165100000Y-105410000D01*
X165100000Y-105410000D02*
X165100000Y-106680000D01*
X165100000Y-106680000D02*
X168910000Y-106680000D01*
X168910000Y-106680000D02*
X168910000Y-107950000D01*
X168910000Y-107950000D02*
X165100000Y-107950000D01*
X165100000Y-107950000D02*
X165100000Y-109220000D01*
X165100000Y-109220000D02*
X168910000Y-109220000D01*
X168910000Y-109220000D02*
X168910000Y-110490000D01*
X168910000Y-110490000D02*
X165100000Y-110490000D01*
X165100000Y-110490000D02*
X165100000Y-111760000D01*
X165100000Y-111760000D02*
X168910000Y-111760000D01*
X168910000Y-111760000D02*
X168910000Y-115570000D01*
X111760000Y-105410000D02*
X111760000Y-113030000D01*
X111760000Y-113030000D02*
X118110000Y-113030000D01*
X118110000Y-113030000D02*
X118110000Y-105410000D01*
X118110000Y-105410000D02*
X111760000Y-105410000D01*
X117366051Y-121920000D02*
G75*
G03X117366051Y-121920000I-1796051J0D01*
G01*
X117366051Y-96520000D02*
G75*
G03X117366051Y-96520000I-1796051J0D01*
G01*
X169436051Y-96520000D02*
G75*
G03X169436051Y-96520000I-1796051J0D01*
G01*
X169436051Y-121920000D02*
G75*
G03X169436051Y-121920000I-1796051J0D01*
G01*
X170200000Y-124470000D02*
X170200000Y-94470000D01*
X170200000Y-94470000D02*
X170200000Y-93970000D01*
X170200000Y-93970000D02*
X113200000Y-93970000D01*
X113200000Y-93970000D02*
X113200000Y-124470000D01*
X113200000Y-124470000D02*
X170200000Y-124470000D01*
X117602000Y-59690000D02*
X117602000Y-88773000D01*
X117602000Y-88773000D02*
X119634000Y-90805000D01*
X119634000Y-90805000D02*
X123444000Y-90805000D01*
X123444000Y-90805000D02*
X127508000Y-87757000D01*
X127508000Y-87757000D02*
X160274000Y-87757000D01*
X164338000Y-90805000D02*
X160274000Y-87757000D01*
X168148000Y-90805000D02*
X170180000Y-88773000D01*
X170180000Y-88773000D02*
X170180000Y-59690000D01*
X170180000Y-59690000D02*
X117602000Y-59690000D01*
X168148000Y-90805000D02*
X164338000Y-90805000D01*
D12*
X182823929Y-70968173D02*
G75*
G02X179050000Y-65960000I1436071J5008173D01*
G01*
X187609947Y-61969383D02*
G75*
G02X185431000Y-71037000I-3349947J-3990617D01*
G01*
X182911133Y-60926928D02*
G75*
G02X185254000Y-60845000I1348867J-5033072D01*
G01*
X179050743Y-66050657D02*
G75*
G02X180774000Y-62088000I5209257J90657D01*
G01*
X185760000Y-65960000D02*
G75*
G03X185760000Y-65960000I-1500000J0D01*
G01*
D11*
X177333571Y-87635952D02*
X177381190Y-87493095D01*
X177428810Y-87445476D01*
X177524048Y-87397857D01*
X177666905Y-87397857D01*
X177762143Y-87445476D01*
X177809762Y-87493095D01*
X177857381Y-87588333D01*
X177857381Y-87969286D01*
X176857381Y-87969286D01*
X176857381Y-87635952D01*
X176905000Y-87540714D01*
X176952619Y-87493095D01*
X177047857Y-87445476D01*
X177143095Y-87445476D01*
X177238333Y-87493095D01*
X177285952Y-87540714D01*
X177333571Y-87635952D01*
X177333571Y-87969286D01*
X176857381Y-87064524D02*
X176857381Y-86397857D01*
X177857381Y-87064524D01*
X177857381Y-86397857D01*
X177857381Y-85493095D02*
X177857381Y-86064524D01*
X177857381Y-85778810D02*
X176857381Y-85778810D01*
X177000238Y-85874048D01*
X177095476Y-85969286D01*
X177143095Y-86064524D01*
X175712381Y-117578095D02*
X174712381Y-117578095D01*
X174712381Y-117340000D01*
X174760000Y-117197142D01*
X174855238Y-117101904D01*
X174950476Y-117054285D01*
X175140952Y-117006666D01*
X175283810Y-117006666D01*
X175474286Y-117054285D01*
X175569524Y-117101904D01*
X175664762Y-117197142D01*
X175712381Y-117340000D01*
X175712381Y-117578095D01*
X175712381Y-116054285D02*
X175712381Y-116625714D01*
X175712381Y-116340000D02*
X174712381Y-116340000D01*
X174855238Y-116435238D01*
X174950476Y-116530476D01*
X174998095Y-116625714D01*
X193492381Y-117578095D02*
X192492381Y-117578095D01*
X192492381Y-117340000D01*
X192540000Y-117197142D01*
X192635238Y-117101904D01*
X192730476Y-117054285D01*
X192920952Y-117006666D01*
X193063810Y-117006666D01*
X193254286Y-117054285D01*
X193349524Y-117101904D01*
X193444762Y-117197142D01*
X193492381Y-117340000D01*
X193492381Y-117578095D01*
X192587619Y-116625714D02*
X192540000Y-116578095D01*
X192492381Y-116482857D01*
X192492381Y-116244761D01*
X192540000Y-116149523D01*
X192587619Y-116101904D01*
X192682857Y-116054285D01*
X192778095Y-116054285D01*
X192920952Y-116101904D01*
X193492381Y-116673333D01*
X193492381Y-116054285D01*
X180701667Y-154122381D02*
X180701667Y-154836667D01*
X180654047Y-154979524D01*
X180558809Y-155074762D01*
X180415952Y-155122381D01*
X180320714Y-155122381D01*
X181701667Y-155122381D02*
X181130238Y-155122381D01*
X181415952Y-155122381D02*
X181415952Y-154122381D01*
X181320714Y-154265238D01*
X181225476Y-154360476D01*
X181130238Y-154408095D01*
X181832381Y-106846666D02*
X181356190Y-107180000D01*
X181832381Y-107418095D02*
X180832381Y-107418095D01*
X180832381Y-107037142D01*
X180880000Y-106941904D01*
X180927619Y-106894285D01*
X181022857Y-106846666D01*
X181165714Y-106846666D01*
X181260952Y-106894285D01*
X181308571Y-106941904D01*
X181356190Y-107037142D01*
X181356190Y-107418095D01*
X181832381Y-105894285D02*
X181832381Y-106465714D01*
X181832381Y-106180000D02*
X180832381Y-106180000D01*
X180975238Y-106275238D01*
X181070476Y-106370476D01*
X181118095Y-106465714D01*
X191992381Y-106846666D02*
X191516190Y-107180000D01*
X191992381Y-107418095D02*
X190992381Y-107418095D01*
X190992381Y-107037142D01*
X191040000Y-106941904D01*
X191087619Y-106894285D01*
X191182857Y-106846666D01*
X191325714Y-106846666D01*
X191420952Y-106894285D01*
X191468571Y-106941904D01*
X191516190Y-107037142D01*
X191516190Y-107418095D01*
X191087619Y-106465714D02*
X191040000Y-106418095D01*
X190992381Y-106322857D01*
X190992381Y-106084761D01*
X191040000Y-105989523D01*
X191087619Y-105941904D01*
X191182857Y-105894285D01*
X191278095Y-105894285D01*
X191420952Y-105941904D01*
X191992381Y-106513333D01*
X191992381Y-105894285D01*
X139152381Y-109981905D02*
X139961905Y-109981905D01*
X140057143Y-109934286D01*
X140104762Y-109886667D01*
X140152381Y-109791429D01*
X140152381Y-109600952D01*
X140104762Y-109505714D01*
X140057143Y-109458095D01*
X139961905Y-109410476D01*
X139152381Y-109410476D01*
X140152381Y-108410476D02*
X140152381Y-108981905D01*
X140152381Y-108696191D02*
X139152381Y-108696191D01*
X139295238Y-108791429D01*
X139390476Y-108886667D01*
X139438095Y-108981905D01*
X124547381Y-98885238D02*
X125547381Y-98551905D01*
X124547381Y-98218571D01*
X125547381Y-97885238D02*
X124547381Y-97885238D01*
X125547381Y-97409048D02*
X124547381Y-97409048D01*
X125547381Y-96837619D01*
X124547381Y-96837619D01*
X127135000Y-97528095D02*
X127087381Y-97623333D01*
X127087381Y-97766190D01*
X127135000Y-97909048D01*
X127230238Y-98004286D01*
X127325476Y-98051905D01*
X127515952Y-98099524D01*
X127658810Y-98099524D01*
X127849286Y-98051905D01*
X127944524Y-98004286D01*
X128039762Y-97909048D01*
X128087381Y-97766190D01*
X128087381Y-97670952D01*
X128039762Y-97528095D01*
X127992143Y-97480476D01*
X127658810Y-97480476D01*
X127658810Y-97670952D01*
X130627381Y-98337619D02*
X130151190Y-98670953D01*
X130627381Y-98909048D02*
X129627381Y-98909048D01*
X129627381Y-98528095D01*
X129675000Y-98432857D01*
X129722619Y-98385238D01*
X129817857Y-98337619D01*
X129960714Y-98337619D01*
X130055952Y-98385238D01*
X130103571Y-98432857D01*
X130151190Y-98528095D01*
X130151190Y-98909048D01*
X130579762Y-97956667D02*
X130627381Y-97813810D01*
X130627381Y-97575714D01*
X130579762Y-97480476D01*
X130532143Y-97432857D01*
X130436905Y-97385238D01*
X130341667Y-97385238D01*
X130246429Y-97432857D01*
X130198810Y-97480476D01*
X130151190Y-97575714D01*
X130103571Y-97766191D01*
X130055952Y-97861429D01*
X130008333Y-97909048D01*
X129913095Y-97956667D01*
X129817857Y-97956667D01*
X129722619Y-97909048D01*
X129675000Y-97861429D01*
X129627381Y-97766191D01*
X129627381Y-97528095D01*
X129675000Y-97385238D01*
X129627381Y-97099524D02*
X129627381Y-96528095D01*
X130627381Y-96813810D02*
X129627381Y-96813810D01*
X132643571Y-98528095D02*
X132643571Y-98194761D01*
X133167381Y-98051904D02*
X133167381Y-98528095D01*
X132167381Y-98528095D01*
X132167381Y-98051904D01*
X133167381Y-97623333D02*
X132167381Y-97623333D01*
X133167381Y-97051904D01*
X132167381Y-97051904D01*
X134707381Y-98551905D02*
X134707381Y-97932857D01*
X135088333Y-98266191D01*
X135088333Y-98123333D01*
X135135952Y-98028095D01*
X135183571Y-97980476D01*
X135278810Y-97932857D01*
X135516905Y-97932857D01*
X135612143Y-97980476D01*
X135659762Y-98028095D01*
X135707381Y-98123333D01*
X135707381Y-98409048D01*
X135659762Y-98504286D01*
X135612143Y-98551905D01*
X134707381Y-97647143D02*
X135707381Y-97313810D01*
X134707381Y-96980476D01*
X137295000Y-97528095D02*
X137247381Y-97623333D01*
X137247381Y-97766190D01*
X137295000Y-97909048D01*
X137390238Y-98004286D01*
X137485476Y-98051905D01*
X137675952Y-98099524D01*
X137818810Y-98099524D01*
X138009286Y-98051905D01*
X138104524Y-98004286D01*
X138199762Y-97909048D01*
X138247381Y-97766190D01*
X138247381Y-97670952D01*
X138199762Y-97528095D01*
X138152143Y-97480476D01*
X137818810Y-97480476D01*
X137818810Y-97670952D01*
X140739762Y-98575714D02*
X140787381Y-98432857D01*
X140787381Y-98194761D01*
X140739762Y-98099523D01*
X140692143Y-98051904D01*
X140596905Y-98004285D01*
X140501667Y-98004285D01*
X140406429Y-98051904D01*
X140358810Y-98099523D01*
X140311190Y-98194761D01*
X140263571Y-98385238D01*
X140215952Y-98480476D01*
X140168333Y-98528095D01*
X140073095Y-98575714D01*
X139977857Y-98575714D01*
X139882619Y-98528095D01*
X139835000Y-98480476D01*
X139787381Y-98385238D01*
X139787381Y-98147142D01*
X139835000Y-98004285D01*
X140787381Y-97575714D02*
X139787381Y-97575714D01*
X140787381Y-97004285D02*
X140215952Y-97432857D01*
X139787381Y-97004285D02*
X140358810Y-97575714D01*
X143279762Y-98599524D02*
X143327381Y-98456667D01*
X143327381Y-98218571D01*
X143279762Y-98123333D01*
X143232143Y-98075714D01*
X143136905Y-98028095D01*
X143041667Y-98028095D01*
X142946429Y-98075714D01*
X142898810Y-98123333D01*
X142851190Y-98218571D01*
X142803571Y-98409048D01*
X142755952Y-98504286D01*
X142708333Y-98551905D01*
X142613095Y-98599524D01*
X142517857Y-98599524D01*
X142422619Y-98551905D01*
X142375000Y-98504286D01*
X142327381Y-98409048D01*
X142327381Y-98170952D01*
X142375000Y-98028095D01*
X142327381Y-97409048D02*
X142327381Y-97218571D01*
X142375000Y-97123333D01*
X142470238Y-97028095D01*
X142660714Y-96980476D01*
X142994048Y-96980476D01*
X143184524Y-97028095D01*
X143279762Y-97123333D01*
X143327381Y-97218571D01*
X143327381Y-97409048D01*
X143279762Y-97504286D01*
X143184524Y-97599524D01*
X142994048Y-97647143D01*
X142660714Y-97647143D01*
X142470238Y-97599524D01*
X142375000Y-97504286D01*
X142327381Y-97409048D01*
X145819762Y-98575714D02*
X145867381Y-98432857D01*
X145867381Y-98194761D01*
X145819762Y-98099523D01*
X145772143Y-98051904D01*
X145676905Y-98004285D01*
X145581667Y-98004285D01*
X145486429Y-98051904D01*
X145438810Y-98099523D01*
X145391190Y-98194761D01*
X145343571Y-98385238D01*
X145295952Y-98480476D01*
X145248333Y-98528095D01*
X145153095Y-98575714D01*
X145057857Y-98575714D01*
X144962619Y-98528095D01*
X144915000Y-98480476D01*
X144867381Y-98385238D01*
X144867381Y-98147142D01*
X144915000Y-98004285D01*
X145772143Y-97004285D02*
X145819762Y-97051904D01*
X145867381Y-97194761D01*
X145867381Y-97289999D01*
X145819762Y-97432857D01*
X145724524Y-97528095D01*
X145629286Y-97575714D01*
X145438810Y-97623333D01*
X145295952Y-97623333D01*
X145105476Y-97575714D01*
X145010238Y-97528095D01*
X144915000Y-97432857D01*
X144867381Y-97289999D01*
X144867381Y-97194761D01*
X144915000Y-97051904D01*
X144962619Y-97004285D01*
X148359762Y-98551905D02*
X148407381Y-98409048D01*
X148407381Y-98170952D01*
X148359762Y-98075714D01*
X148312143Y-98028095D01*
X148216905Y-97980476D01*
X148121667Y-97980476D01*
X148026429Y-98028095D01*
X147978810Y-98075714D01*
X147931190Y-98170952D01*
X147883571Y-98361429D01*
X147835952Y-98456667D01*
X147788333Y-98504286D01*
X147693095Y-98551905D01*
X147597857Y-98551905D01*
X147502619Y-98504286D01*
X147455000Y-98456667D01*
X147407381Y-98361429D01*
X147407381Y-98123333D01*
X147455000Y-97980476D01*
X148407381Y-97028095D02*
X148407381Y-97599524D01*
X148407381Y-97313810D02*
X147407381Y-97313810D01*
X147550238Y-97409048D01*
X147645476Y-97504286D01*
X147693095Y-97599524D01*
X150899762Y-98551905D02*
X150947381Y-98409048D01*
X150947381Y-98170952D01*
X150899762Y-98075714D01*
X150852143Y-98028095D01*
X150756905Y-97980476D01*
X150661667Y-97980476D01*
X150566429Y-98028095D01*
X150518810Y-98075714D01*
X150471190Y-98170952D01*
X150423571Y-98361429D01*
X150375952Y-98456667D01*
X150328333Y-98504286D01*
X150233095Y-98551905D01*
X150137857Y-98551905D01*
X150042619Y-98504286D01*
X149995000Y-98456667D01*
X149947381Y-98361429D01*
X149947381Y-98123333D01*
X149995000Y-97980476D01*
X150042619Y-97599524D02*
X149995000Y-97551905D01*
X149947381Y-97456667D01*
X149947381Y-97218571D01*
X149995000Y-97123333D01*
X150042619Y-97075714D01*
X150137857Y-97028095D01*
X150233095Y-97028095D01*
X150375952Y-97075714D01*
X150947381Y-97647143D01*
X150947381Y-97028095D01*
X153439762Y-98551905D02*
X153487381Y-98409048D01*
X153487381Y-98170952D01*
X153439762Y-98075714D01*
X153392143Y-98028095D01*
X153296905Y-97980476D01*
X153201667Y-97980476D01*
X153106429Y-98028095D01*
X153058810Y-98075714D01*
X153011190Y-98170952D01*
X152963571Y-98361429D01*
X152915952Y-98456667D01*
X152868333Y-98504286D01*
X152773095Y-98551905D01*
X152677857Y-98551905D01*
X152582619Y-98504286D01*
X152535000Y-98456667D01*
X152487381Y-98361429D01*
X152487381Y-98123333D01*
X152535000Y-97980476D01*
X152487381Y-97647143D02*
X152487381Y-97028095D01*
X152868333Y-97361429D01*
X152868333Y-97218571D01*
X152915952Y-97123333D01*
X152963571Y-97075714D01*
X153058810Y-97028095D01*
X153296905Y-97028095D01*
X153392143Y-97075714D01*
X153439762Y-97123333D01*
X153487381Y-97218571D01*
X153487381Y-97504286D01*
X153439762Y-97599524D01*
X153392143Y-97647143D01*
X155027381Y-98647143D02*
X156027381Y-98313810D01*
X155027381Y-97980476D01*
X155027381Y-97647143D02*
X155836905Y-97647143D01*
X155932143Y-97599524D01*
X155979762Y-97551905D01*
X156027381Y-97456667D01*
X156027381Y-97266190D01*
X155979762Y-97170952D01*
X155932143Y-97123333D01*
X155836905Y-97075714D01*
X155027381Y-97075714D01*
X157615000Y-97528095D02*
X157567381Y-97623333D01*
X157567381Y-97766190D01*
X157615000Y-97909048D01*
X157710238Y-98004286D01*
X157805476Y-98051905D01*
X157995952Y-98099524D01*
X158138810Y-98099524D01*
X158329286Y-98051905D01*
X158424524Y-98004286D01*
X158519762Y-97909048D01*
X158567381Y-97766190D01*
X158567381Y-97670952D01*
X158519762Y-97528095D01*
X158472143Y-97480476D01*
X158138810Y-97480476D01*
X158138810Y-97670952D01*
X160821667Y-98504286D02*
X160821667Y-98028095D01*
X161107381Y-98599524D02*
X160107381Y-98266191D01*
X161107381Y-97932857D01*
X160107381Y-97409048D02*
X160107381Y-97313809D01*
X160155000Y-97218571D01*
X160202619Y-97170952D01*
X160297857Y-97123333D01*
X160488333Y-97075714D01*
X160726429Y-97075714D01*
X160916905Y-97123333D01*
X161012143Y-97170952D01*
X161059762Y-97218571D01*
X161107381Y-97313809D01*
X161107381Y-97409048D01*
X161059762Y-97504286D01*
X161012143Y-97551905D01*
X160916905Y-97599524D01*
X160726429Y-97647143D01*
X160488333Y-97647143D01*
X160297857Y-97599524D01*
X160202619Y-97551905D01*
X160155000Y-97504286D01*
X160107381Y-97409048D01*
X124547381Y-121411905D02*
X124547381Y-120792857D01*
X124928333Y-121126191D01*
X124928333Y-120983333D01*
X124975952Y-120888095D01*
X125023571Y-120840476D01*
X125118810Y-120792857D01*
X125356905Y-120792857D01*
X125452143Y-120840476D01*
X125499762Y-120888095D01*
X125547381Y-120983333D01*
X125547381Y-121269048D01*
X125499762Y-121364286D01*
X125452143Y-121411905D01*
X124547381Y-120507143D02*
X125547381Y-120173810D01*
X124547381Y-119840476D01*
X127135000Y-120388095D02*
X127087381Y-120483333D01*
X127087381Y-120626190D01*
X127135000Y-120769048D01*
X127230238Y-120864286D01*
X127325476Y-120911905D01*
X127515952Y-120959524D01*
X127658810Y-120959524D01*
X127849286Y-120911905D01*
X127944524Y-120864286D01*
X128039762Y-120769048D01*
X128087381Y-120626190D01*
X128087381Y-120530952D01*
X128039762Y-120388095D01*
X127992143Y-120340476D01*
X127658810Y-120340476D01*
X127658810Y-120530952D01*
X129627381Y-121411905D02*
X129627381Y-120840476D01*
X130627381Y-121126191D02*
X129627381Y-121126191D01*
X129627381Y-120602381D02*
X130627381Y-119935714D01*
X129627381Y-119935714D02*
X130627381Y-120602381D01*
X133167381Y-120816666D02*
X132691190Y-121150000D01*
X133167381Y-121388095D02*
X132167381Y-121388095D01*
X132167381Y-121007142D01*
X132215000Y-120911904D01*
X132262619Y-120864285D01*
X132357857Y-120816666D01*
X132500714Y-120816666D01*
X132595952Y-120864285D01*
X132643571Y-120911904D01*
X132691190Y-121007142D01*
X132691190Y-121388095D01*
X132167381Y-120483333D02*
X133167381Y-119816666D01*
X132167381Y-119816666D02*
X133167381Y-120483333D01*
X135707381Y-121388095D02*
X134707381Y-121388095D01*
X134707381Y-121150000D01*
X134755000Y-121007142D01*
X134850238Y-120911904D01*
X134945476Y-120864285D01*
X135135952Y-120816666D01*
X135278810Y-120816666D01*
X135469286Y-120864285D01*
X135564524Y-120911904D01*
X135659762Y-121007142D01*
X135707381Y-121150000D01*
X135707381Y-121388095D01*
X135135952Y-120245238D02*
X135088333Y-120340476D01*
X135040714Y-120388095D01*
X134945476Y-120435714D01*
X134897857Y-120435714D01*
X134802619Y-120388095D01*
X134755000Y-120340476D01*
X134707381Y-120245238D01*
X134707381Y-120054761D01*
X134755000Y-119959523D01*
X134802619Y-119911904D01*
X134897857Y-119864285D01*
X134945476Y-119864285D01*
X135040714Y-119911904D01*
X135088333Y-119959523D01*
X135135952Y-120054761D01*
X135135952Y-120245238D01*
X135183571Y-120340476D01*
X135231190Y-120388095D01*
X135326429Y-120435714D01*
X135516905Y-120435714D01*
X135612143Y-120388095D01*
X135659762Y-120340476D01*
X135707381Y-120245238D01*
X135707381Y-120054761D01*
X135659762Y-119959523D01*
X135612143Y-119911904D01*
X135516905Y-119864285D01*
X135326429Y-119864285D01*
X135231190Y-119911904D01*
X135183571Y-119959523D01*
X135135952Y-120054761D01*
X138247381Y-121388095D02*
X137247381Y-121388095D01*
X137247381Y-121150000D01*
X137295000Y-121007142D01*
X137390238Y-120911904D01*
X137485476Y-120864285D01*
X137675952Y-120816666D01*
X137818810Y-120816666D01*
X138009286Y-120864285D01*
X138104524Y-120911904D01*
X138199762Y-121007142D01*
X138247381Y-121150000D01*
X138247381Y-121388095D01*
X137247381Y-120483333D02*
X137247381Y-119816666D01*
X138247381Y-120245238D01*
X140787381Y-121388095D02*
X139787381Y-121388095D01*
X139787381Y-121150000D01*
X139835000Y-121007142D01*
X139930238Y-120911904D01*
X140025476Y-120864285D01*
X140215952Y-120816666D01*
X140358810Y-120816666D01*
X140549286Y-120864285D01*
X140644524Y-120911904D01*
X140739762Y-121007142D01*
X140787381Y-121150000D01*
X140787381Y-121388095D01*
X139787381Y-119959523D02*
X139787381Y-120150000D01*
X139835000Y-120245238D01*
X139882619Y-120292857D01*
X140025476Y-120388095D01*
X140215952Y-120435714D01*
X140596905Y-120435714D01*
X140692143Y-120388095D01*
X140739762Y-120340476D01*
X140787381Y-120245238D01*
X140787381Y-120054761D01*
X140739762Y-119959523D01*
X140692143Y-119911904D01*
X140596905Y-119864285D01*
X140358810Y-119864285D01*
X140263571Y-119911904D01*
X140215952Y-119959523D01*
X140168333Y-120054761D01*
X140168333Y-120245238D01*
X140215952Y-120340476D01*
X140263571Y-120388095D01*
X140358810Y-120435714D01*
X143962381Y-126468095D02*
X142962381Y-126468095D01*
X142962381Y-126230000D01*
X143010000Y-126087142D01*
X143105238Y-125991904D01*
X143200476Y-125944285D01*
X143390952Y-125896666D01*
X143533810Y-125896666D01*
X143724286Y-125944285D01*
X143819524Y-125991904D01*
X143914762Y-126087142D01*
X143962381Y-126230000D01*
X143962381Y-126468095D01*
X142962381Y-124991904D02*
X142962381Y-125468095D01*
X143438571Y-125515714D01*
X143390952Y-125468095D01*
X143343333Y-125372857D01*
X143343333Y-125134761D01*
X143390952Y-125039523D01*
X143438571Y-124991904D01*
X143533810Y-124944285D01*
X143771905Y-124944285D01*
X143867143Y-124991904D01*
X143914762Y-125039523D01*
X143962381Y-125134761D01*
X143962381Y-125372857D01*
X143914762Y-125468095D01*
X143867143Y-125515714D01*
X144915000Y-120388095D02*
X144867381Y-120483333D01*
X144867381Y-120626190D01*
X144915000Y-120769048D01*
X145010238Y-120864286D01*
X145105476Y-120911905D01*
X145295952Y-120959524D01*
X145438810Y-120959524D01*
X145629286Y-120911905D01*
X145724524Y-120864286D01*
X145819762Y-120769048D01*
X145867381Y-120626190D01*
X145867381Y-120530952D01*
X145819762Y-120388095D01*
X145772143Y-120340476D01*
X145438810Y-120340476D01*
X145438810Y-120530952D01*
X147407381Y-121411905D02*
X147407381Y-120792857D01*
X147788333Y-121126191D01*
X147788333Y-120983333D01*
X147835952Y-120888095D01*
X147883571Y-120840476D01*
X147978810Y-120792857D01*
X148216905Y-120792857D01*
X148312143Y-120840476D01*
X148359762Y-120888095D01*
X148407381Y-120983333D01*
X148407381Y-121269048D01*
X148359762Y-121364286D01*
X148312143Y-121411905D01*
X147407381Y-120507143D02*
X148407381Y-120173810D01*
X147407381Y-119840476D01*
X151582381Y-126468095D02*
X150582381Y-126468095D01*
X150582381Y-126230000D01*
X150630000Y-126087142D01*
X150725238Y-125991904D01*
X150820476Y-125944285D01*
X151010952Y-125896666D01*
X151153810Y-125896666D01*
X151344286Y-125944285D01*
X151439524Y-125991904D01*
X151534762Y-126087142D01*
X151582381Y-126230000D01*
X151582381Y-126468095D01*
X150915714Y-125039523D02*
X151582381Y-125039523D01*
X150534762Y-125277619D02*
X151249048Y-125515714D01*
X151249048Y-124896666D01*
X153487381Y-121388095D02*
X152487381Y-121388095D01*
X152487381Y-121150000D01*
X152535000Y-121007142D01*
X152630238Y-120911904D01*
X152725476Y-120864285D01*
X152915952Y-120816666D01*
X153058810Y-120816666D01*
X153249286Y-120864285D01*
X153344524Y-120911904D01*
X153439762Y-121007142D01*
X153487381Y-121150000D01*
X153487381Y-121388095D01*
X152487381Y-120483333D02*
X152487381Y-119864285D01*
X152868333Y-120197619D01*
X152868333Y-120054761D01*
X152915952Y-119959523D01*
X152963571Y-119911904D01*
X153058810Y-119864285D01*
X153296905Y-119864285D01*
X153392143Y-119911904D01*
X153439762Y-119959523D01*
X153487381Y-120054761D01*
X153487381Y-120340476D01*
X153439762Y-120435714D01*
X153392143Y-120483333D01*
X156027381Y-121388095D02*
X155027381Y-121388095D01*
X155027381Y-121150000D01*
X155075000Y-121007142D01*
X155170238Y-120911904D01*
X155265476Y-120864285D01*
X155455952Y-120816666D01*
X155598810Y-120816666D01*
X155789286Y-120864285D01*
X155884524Y-120911904D01*
X155979762Y-121007142D01*
X156027381Y-121150000D01*
X156027381Y-121388095D01*
X155122619Y-120435714D02*
X155075000Y-120388095D01*
X155027381Y-120292857D01*
X155027381Y-120054761D01*
X155075000Y-119959523D01*
X155122619Y-119911904D01*
X155217857Y-119864285D01*
X155313095Y-119864285D01*
X155455952Y-119911904D01*
X156027381Y-120483333D01*
X156027381Y-119864285D01*
X158567381Y-121388095D02*
X157567381Y-121388095D01*
X157567381Y-121150000D01*
X157615000Y-121007142D01*
X157710238Y-120911904D01*
X157805476Y-120864285D01*
X157995952Y-120816666D01*
X158138810Y-120816666D01*
X158329286Y-120864285D01*
X158424524Y-120911904D01*
X158519762Y-121007142D01*
X158567381Y-121150000D01*
X158567381Y-121388095D01*
X158567381Y-119864285D02*
X158567381Y-120435714D01*
X158567381Y-120150000D02*
X157567381Y-120150000D01*
X157710238Y-120245238D01*
X157805476Y-120340476D01*
X157853095Y-120435714D01*
X161107381Y-121388095D02*
X160107381Y-121388095D01*
X160107381Y-121150000D01*
X160155000Y-121007142D01*
X160250238Y-120911904D01*
X160345476Y-120864285D01*
X160535952Y-120816666D01*
X160678810Y-120816666D01*
X160869286Y-120864285D01*
X160964524Y-120911904D01*
X161059762Y-121007142D01*
X161107381Y-121150000D01*
X161107381Y-121388095D01*
X160107381Y-120197619D02*
X160107381Y-120102380D01*
X160155000Y-120007142D01*
X160202619Y-119959523D01*
X160297857Y-119911904D01*
X160488333Y-119864285D01*
X160726429Y-119864285D01*
X160916905Y-119911904D01*
X161012143Y-119959523D01*
X161059762Y-120007142D01*
X161107381Y-120102380D01*
X161107381Y-120197619D01*
X161059762Y-120292857D01*
X161012143Y-120340476D01*
X160916905Y-120388095D01*
X160726429Y-120435714D01*
X160488333Y-120435714D01*
X160297857Y-120388095D01*
X160202619Y-120340476D01*
X160155000Y-120292857D01*
X160107381Y-120197619D01*
X191112381Y-66555238D02*
X190636190Y-66888572D01*
X191112381Y-67126667D02*
X190112381Y-67126667D01*
X190112381Y-66745714D01*
X190160000Y-66650476D01*
X190207619Y-66602857D01*
X190302857Y-66555238D01*
X190445714Y-66555238D01*
X190540952Y-66602857D01*
X190588571Y-66650476D01*
X190636190Y-66745714D01*
X190636190Y-67126667D01*
X190112381Y-66269524D02*
X191112381Y-65936191D01*
X190112381Y-65602857D01*
X191112381Y-64745714D02*
X191112381Y-65317143D01*
X191112381Y-65031429D02*
X190112381Y-65031429D01*
X190255238Y-65126667D01*
X190350476Y-65221905D01*
X190398095Y-65317143D01*
M02*
