G04 #@! TF.FileFunction,Copper,L1,Top,Signal*
%FSLAX46Y46*%
G04 Gerber Fmt 4.6, Leading zero omitted, Abs format (unit mm)*
G04 Created by KiCad (PCBNEW 4.0.7-e2-6376~58~ubuntu16.04.1) date Mon Jan 29 12:29:23 2018*
%MOMM*%
%LPD*%
G01*
G04 APERTURE LIST*
%ADD10C,0.100000*%
%ADD11C,2.200000*%
%ADD12R,1.800000X1.800000*%
%ADD13C,1.800000*%
%ADD14R,1.700000X1.700000*%
%ADD15O,1.700000X1.700000*%
%ADD16C,1.600000*%
%ADD17O,1.600000X1.600000*%
%ADD18C,1.524000*%
%ADD19C,1.700000*%
%ADD20C,2.340000*%
%ADD21C,0.250000*%
G04 APERTURE END LIST*
D10*
D11*
X184150000Y-78910000D03*
X184150000Y-93810000D03*
D12*
X179070000Y-118110000D03*
D13*
X179070000Y-120650000D03*
D12*
X189230000Y-118110000D03*
D13*
X189230000Y-120650000D03*
D14*
X185420000Y-152400000D03*
D15*
X185420000Y-149860000D03*
X185420000Y-147320000D03*
X185420000Y-144780000D03*
X185420000Y-142240000D03*
X185420000Y-139700000D03*
X185420000Y-137160000D03*
D16*
X179070000Y-101600000D03*
D17*
X179070000Y-111760000D03*
D16*
X189230000Y-101600000D03*
D17*
X189230000Y-111760000D03*
D18*
X160655000Y-95250000D03*
X158115000Y-95250000D03*
X155575000Y-95250000D03*
X153035000Y-95250000D03*
X150495000Y-95250000D03*
X147955000Y-95250000D03*
X145415000Y-95250000D03*
X142875000Y-95250000D03*
X140335000Y-95250000D03*
X137795000Y-95250000D03*
X135255000Y-95250000D03*
X132715000Y-95250000D03*
X130175000Y-95250000D03*
X127635000Y-95250000D03*
X125095000Y-95250000D03*
X125095000Y-123190000D03*
X127635000Y-123190000D03*
X130175000Y-123190000D03*
X132715000Y-123190000D03*
X135255000Y-123190000D03*
X137795000Y-123190000D03*
X140335000Y-123190000D03*
X142875000Y-123190000D03*
X145415000Y-123190000D03*
X147955000Y-123190000D03*
X150495000Y-123190000D03*
X153035000Y-123190000D03*
X155575000Y-123190000D03*
X158115000Y-123190000D03*
X160655000Y-123190000D03*
D19*
X165100000Y-87376000D03*
X165100000Y-77343000D03*
X167640000Y-77343000D03*
X120142000Y-87376000D03*
X122682000Y-87376000D03*
X167640000Y-87376000D03*
X122682000Y-77343000D03*
X120142000Y-77343000D03*
D20*
X186610000Y-60960000D03*
X184110000Y-70960000D03*
X181610000Y-60960000D03*
D21*
X184110000Y-70960000D02*
X184110000Y-78870000D01*
X184110000Y-78870000D02*
X184150000Y-78910000D01*
X179070000Y-118110000D02*
X179070000Y-111760000D01*
X158115000Y-123190000D02*
X158115000Y-125095000D01*
X179070000Y-124460000D02*
X179070000Y-120650000D01*
X177800000Y-125730000D02*
X179070000Y-124460000D01*
X158750000Y-125730000D02*
X177800000Y-125730000D01*
X158115000Y-125095000D02*
X158750000Y-125730000D01*
X189230000Y-118110000D02*
X189230000Y-111760000D01*
X155575000Y-123190000D02*
X155575000Y-126365000D01*
X189230000Y-125730000D02*
X189230000Y-120650000D01*
X187960000Y-127000000D02*
X189230000Y-125730000D01*
X156210000Y-127000000D02*
X187960000Y-127000000D01*
X155575000Y-126365000D02*
X156210000Y-127000000D01*
X150495000Y-123190000D02*
X150495000Y-120015000D01*
X151130000Y-152400000D02*
X185420000Y-152400000D01*
X134620000Y-135890000D02*
X151130000Y-152400000D01*
X134620000Y-130810000D02*
X134620000Y-135890000D01*
X132080000Y-128270000D02*
X134620000Y-130810000D01*
X123190000Y-128270000D02*
X132080000Y-128270000D01*
X120650000Y-125730000D02*
X123190000Y-128270000D01*
X120650000Y-120650000D02*
X120650000Y-125730000D01*
X123190000Y-118110000D02*
X120650000Y-120650000D01*
X148590000Y-118110000D02*
X123190000Y-118110000D01*
X150495000Y-120015000D02*
X148590000Y-118110000D01*
X142875000Y-123190000D02*
X142875000Y-121285000D01*
X151130000Y-149860000D02*
X185420000Y-149860000D01*
X135890000Y-134620000D02*
X151130000Y-149860000D01*
X135890000Y-129540000D02*
X135890000Y-134620000D01*
X133350000Y-127000000D02*
X135890000Y-129540000D01*
X124460000Y-127000000D02*
X133350000Y-127000000D01*
X121920000Y-124460000D02*
X124460000Y-127000000D01*
X121920000Y-121920000D02*
X121920000Y-124460000D01*
X124460000Y-119380000D02*
X121920000Y-121920000D01*
X140970000Y-119380000D02*
X124460000Y-119380000D01*
X142875000Y-121285000D02*
X140970000Y-119380000D01*
X137795000Y-123190000D02*
X137795000Y-133985000D01*
X151130000Y-147320000D02*
X185420000Y-147320000D01*
X137795000Y-133985000D02*
X151130000Y-147320000D01*
X140335000Y-123190000D02*
X140335000Y-133985000D01*
X151130000Y-144780000D02*
X185420000Y-144780000D01*
X140335000Y-133985000D02*
X151130000Y-144780000D01*
X153035000Y-123190000D02*
X153035000Y-126365000D01*
X187960000Y-139700000D02*
X185420000Y-139700000D01*
X189230000Y-138430000D02*
X187960000Y-139700000D01*
X189230000Y-132080000D02*
X189230000Y-138430000D01*
X186690000Y-129540000D02*
X189230000Y-132080000D01*
X156210000Y-129540000D02*
X186690000Y-129540000D01*
X153035000Y-126365000D02*
X156210000Y-129540000D01*
X147955000Y-123190000D02*
X147955000Y-127635000D01*
X185420000Y-133350000D02*
X185420000Y-137160000D01*
X184150000Y-132080000D02*
X185420000Y-133350000D01*
X152400000Y-132080000D02*
X184150000Y-132080000D01*
X147955000Y-127635000D02*
X152400000Y-132080000D01*
X153035000Y-95250000D02*
X153035000Y-93345000D01*
X172720000Y-60960000D02*
X181610000Y-60960000D01*
X171450000Y-62230000D02*
X172720000Y-60960000D01*
X171450000Y-91440000D02*
X171450000Y-62230000D01*
X170180000Y-92710000D02*
X171450000Y-91440000D01*
X153670000Y-92710000D02*
X170180000Y-92710000D01*
X153035000Y-93345000D02*
X153670000Y-92710000D01*
X120142000Y-87376000D02*
X120142000Y-90932000D01*
X125095000Y-93345000D02*
X125095000Y-95250000D01*
X123190000Y-91440000D02*
X125095000Y-93345000D01*
X120650000Y-91440000D02*
X123190000Y-91440000D01*
X120142000Y-90932000D02*
X120650000Y-91440000D01*
M02*
